<?xml version="1.0" encoding="UTF-8"?>
<svg xmlns="http://www.w3.org/2000/svg" xmlns:xlink="http://www.w3.org/1999/xlink" width="612pt" height="792pt" viewBox="0 0 612 792" version="1.1">
<g id="surface1">
<path style=" stroke:none;fill-rule:nonzero;fill:rgb(100%,79.998779%,79.998779%);fill-opacity:1;" d="M 157.234375 210.9375 L 185.582031 210.9375 L 185.582031 192.042969 L 157.234375 210.9375 "/>
<path style=" stroke:none;fill-rule:nonzero;fill:rgb(100%,79.998779%,79.998779%);fill-opacity:1;" d="M 213.929688 182.589844 L 242.273438 182.589844 L 242.273438 154.242188 L 213.929688 173.140625 "/>
<path style="fill:none;stroke-width:0.3985;stroke-linecap:butt;stroke-linejoin:miter;stroke:rgb(0%,0%,0%);stroke-opacity:1;stroke-miterlimit:10;" d="M 179.528 42.519031 C 170.844406 55.546375 153.24675 59.065906 140.219406 50.382313 C 127.195969 41.698719 123.676438 24.101063 131.250656 12.737781 " transform="matrix(1,0,0,-1,43.847,210.937)"/>
<path style=" stroke:none;fill-rule:nonzero;fill:rgb(0%,0%,0%);fill-opacity:1;" d="M 176.207031 199.863281 L 175.761719 196.316406 L 175.097656 198.199219 L 173.101563 198.089844 "/>
<path style=" stroke:none;fill-rule:nonzero;fill:rgb(79.998779%,79.998779%,100%);fill-opacity:1;" d="M 185.582031 210.9375 L 213.929688 210.9375 L 213.929688 173.140625 L 185.582031 192.042969 L 185.582031 210.9375 "/>
<path style="fill:none;stroke-width:0.3985;stroke-linecap:butt;stroke-linejoin:miter;stroke:rgb(0%,0%,0%);stroke-opacity:1;stroke-miterlimit:10;" d="M 162.992844 33.069813 C 160.098313 37.409656 154.235031 38.585438 149.891281 35.690906 C 145.551438 32.796375 144.379563 26.929188 146.164719 24.2495 " transform="matrix(1,0,0,-1,43.847,210.937)"/>
<path style=" stroke:none;fill-rule:nonzero;fill:rgb(0%,0%,0%);fill-opacity:1;" d="M 191.121094 188.347656 L 190.675781 184.800781 L 190.011719 186.6875 L 188.015625 186.574219 "/>
<path style=" stroke:none;fill-rule:nonzero;fill:rgb(89.99939%,89.99939%,89.99939%);fill-opacity:1;" d="M 213.929688 210.9375 L 242.273438 210.9375 L 242.273438 182.589844 L 213.929688 182.589844 L 213.929688 210.9375 "/>
<path style="fill:none;stroke-width:0.19925;stroke-linecap:butt;stroke-linejoin:miter;stroke:rgb(0%,0%,0%);stroke-opacity:0.5;stroke-miterlimit:10;" d="M 85.039719 -28.348156 L 226.774094 -28.348156 M 85.039719 -0.0005 L 226.774094 -0.0005 M 85.039719 28.347156 L 226.774094 28.347156 M 85.039719 56.694813 L 226.774094 56.694813 M 85.039719 85.03075 L 226.774094 85.03075 M 85.039719 -28.348156 L 85.039719 85.038563 M 113.387375 -28.348156 L 113.387375 85.038563 M 141.735031 -28.348156 L 141.735031 85.038563 M 170.082688 -28.348156 L 170.082688 85.038563 M 198.426438 -28.348156 L 198.426438 85.038563 M 226.766281 -28.348156 L 226.766281 85.038563 " transform="matrix(1,0,0,-1,43.847,210.937)"/>
<path style="fill:none;stroke-width:0.79701;stroke-linecap:butt;stroke-linejoin:miter;stroke:rgb(0%,0%,0%);stroke-opacity:1;stroke-miterlimit:10;" d="M 113.387375 -0.0005 L 141.735031 -0.0005 L 141.735031 28.347156 L 113.387375 28.347156 L 113.387375 -0.0005 " transform="matrix(1,0,0,-1,43.847,210.937)"/>
<path style="fill:none;stroke-width:0.79701;stroke-linecap:butt;stroke-linejoin:miter;stroke:rgb(0%,0%,0%);stroke-opacity:1;stroke-miterlimit:10;" d="M 141.735031 -0.0005 L 170.082688 -0.0005 L 170.082688 28.347156 L 141.735031 28.347156 L 141.735031 -0.0005 " transform="matrix(1,0,0,-1,43.847,210.937)"/>
<path style="fill:none;stroke-width:0.79701;stroke-linecap:butt;stroke-linejoin:miter;stroke:rgb(0%,0%,0%);stroke-opacity:1;stroke-miterlimit:10;" d="M 170.082688 -0.0005 L 198.426438 -0.0005 L 198.426438 28.347156 L 170.082688 28.347156 L 170.082688 -0.0005 " transform="matrix(1,0,0,-1,43.847,210.937)"/>
</g>
</svg>
