<?xml version="1.0" encoding="UTF-8"?>
<svg xmlns="http://www.w3.org/2000/svg" xmlns:xlink="http://www.w3.org/1999/xlink" width="612pt" height="792pt" viewBox="0 0 612 792" version="1.1">
<defs>
<clipPath id="clip1">
  <path d="M 128.785156 318 L 367.890625 318 L 367.890625 320 L 128.785156 320 Z M 128.785156 318 "/>
</clipPath>
</defs>
<g id="surface1">
<path style=" stroke:none;fill-rule:nonzero;fill:rgb(100%,98.469543%,70.001221%);fill-opacity:1;" d="M 128.785156 332.023438 L 367.890625 332.023438 L 367.890625 125.796875 L 128.785156 125.796875 Z M 128.785156 332.023438 "/>
<path style="fill-rule:nonzero;fill:rgb(100%,69.999695%,69.999695%);fill-opacity:1;stroke-width:0.3985;stroke-linecap:butt;stroke-linejoin:miter;stroke:rgb(92.549133%,0%,54.899597%);stroke-opacity:1;stroke-miterlimit:10;" d="M 39.849719 12.891188 L 39.849719 116.004469 L 92.982531 116.004469 L 92.982531 12.891188 L 39.849719 12.891188 " transform="matrix(1,0,0,-1,128.787,332.024)"/>
<path style="fill-rule:nonzero;fill:rgb(100%,100%,100%);fill-opacity:1;stroke-width:0.3985;stroke-linecap:butt;stroke-linejoin:miter;stroke:rgb(0%,0%,0%);stroke-opacity:1;stroke-miterlimit:10;" d="M 85.013781 23.199781 L 79.701281 23.199781 L 79.701281 16.754469 L 85.013781 16.754469 L 85.013781 23.199781 L 79.701281 23.199781 L 82.357531 23.199781 L 82.357531 16.754469 L 82.357531 19.977125 L 79.701281 19.977125 L 85.013781 19.977125 " transform="matrix(1,0,0,-1,128.787,332.024)"/>
<path style="fill-rule:nonzero;fill:rgb(100%,100%,100%);fill-opacity:1;stroke-width:0.3985;stroke-linecap:butt;stroke-linejoin:miter;stroke:rgb(0%,0%,0%);stroke-opacity:1;stroke-miterlimit:10;" d="M 53.134875 23.199781 L 47.822375 23.199781 L 47.822375 16.754469 L 53.134875 16.754469 L 53.134875 23.199781 L 47.822375 23.199781 L 50.478625 23.199781 L 50.478625 16.754469 L 50.478625 19.977125 L 47.822375 19.977125 L 53.134875 19.977125 " transform="matrix(1,0,0,-1,128.787,332.024)"/>
<path style="fill-rule:nonzero;fill:rgb(59.999084%,59.999084%,59.999084%);fill-opacity:1;stroke-width:0.3985;stroke-linecap:butt;stroke-linejoin:miter;stroke:rgb(0%,0%,0%);stroke-opacity:1;stroke-miterlimit:10;" d="M 71.732531 24.488844 L 71.732531 12.891188 L 61.103625 12.891188 L 61.103625 24.488844 L 71.732531 24.488844 " transform="matrix(1,0,0,-1,128.787,332.024)"/>
<path style="fill:none;stroke-width:0.3985;stroke-linecap:butt;stroke-linejoin:miter;stroke:rgb(0%,0%,0%);stroke-opacity:1;stroke-miterlimit:10;" d="M 66.416125 12.891188 L 66.416125 24.488844 " transform="matrix(1,0,0,-1,128.787,332.024)"/>
<path style="fill-rule:nonzero;fill:rgb(100%,100%,100%);fill-opacity:1;stroke-width:0.3985;stroke-linecap:butt;stroke-linejoin:miter;stroke:rgb(0%,0%,0%);stroke-opacity:1;stroke-miterlimit:10;" d="M 53.134875 36.090406 L 47.822375 36.090406 L 47.822375 29.645094 L 53.134875 29.645094 L 53.134875 36.090406 L 47.822375 36.090406 L 50.478625 36.090406 L 50.478625 29.645094 L 50.478625 32.86775 L 47.822375 32.86775 L 53.134875 32.86775 " transform="matrix(1,0,0,-1,128.787,332.024)"/>
<path style="fill-rule:nonzero;fill:rgb(100%,100%,100%);fill-opacity:1;stroke-width:0.3985;stroke-linecap:butt;stroke-linejoin:miter;stroke:rgb(0%,0%,0%);stroke-opacity:1;stroke-miterlimit:10;" d="M 53.134875 48.981031 L 47.822375 48.981031 L 47.822375 42.535719 L 53.134875 42.535719 L 53.134875 48.981031 L 47.822375 48.981031 L 50.478625 48.981031 L 50.478625 42.535719 L 50.478625 45.758375 L 47.822375 45.758375 L 53.134875 45.758375 " transform="matrix(1,0,0,-1,128.787,332.024)"/>
<path style="fill-rule:nonzero;fill:rgb(100%,100%,100%);fill-opacity:1;stroke-width:0.3985;stroke-linecap:butt;stroke-linejoin:miter;stroke:rgb(0%,0%,0%);stroke-opacity:1;stroke-miterlimit:10;" d="M 53.134875 61.86775 L 47.822375 61.86775 L 47.822375 55.422438 L 53.134875 55.422438 L 53.134875 61.86775 L 47.822375 61.86775 L 50.478625 61.86775 L 50.478625 55.422438 L 50.478625 58.645094 L 47.822375 58.645094 L 53.134875 58.645094 " transform="matrix(1,0,0,-1,128.787,332.024)"/>
<path style="fill-rule:nonzero;fill:rgb(100%,100%,100%);fill-opacity:1;stroke-width:0.3985;stroke-linecap:butt;stroke-linejoin:miter;stroke:rgb(0%,0%,0%);stroke-opacity:1;stroke-miterlimit:10;" d="M 53.134875 74.758375 L 47.822375 74.758375 L 47.822375 68.313063 L 53.134875 68.313063 L 53.134875 74.758375 L 47.822375 74.758375 L 50.478625 74.758375 L 50.478625 68.313063 L 50.478625 71.535719 L 47.822375 71.535719 L 53.134875 71.535719 " transform="matrix(1,0,0,-1,128.787,332.024)"/>
<path style="fill-rule:nonzero;fill:rgb(100%,100%,100%);fill-opacity:1;stroke-width:0.3985;stroke-linecap:butt;stroke-linejoin:miter;stroke:rgb(0%,0%,0%);stroke-opacity:1;stroke-miterlimit:10;" d="M 53.134875 87.649 L 47.822375 87.649 L 47.822375 81.203688 L 53.134875 81.203688 L 53.134875 87.649 L 47.822375 87.649 L 50.478625 87.649 L 50.478625 81.203688 L 50.478625 84.426344 L 47.822375 84.426344 L 53.134875 84.426344 " transform="matrix(1,0,0,-1,128.787,332.024)"/>
<path style="fill-rule:nonzero;fill:rgb(100%,100%,100%);fill-opacity:1;stroke-width:0.3985;stroke-linecap:butt;stroke-linejoin:miter;stroke:rgb(0%,0%,0%);stroke-opacity:1;stroke-miterlimit:10;" d="M 53.134875 100.535719 L 47.822375 100.535719 L 47.822375 94.090406 L 53.134875 94.090406 L 53.134875 100.535719 L 47.822375 100.535719 L 50.478625 100.535719 L 50.478625 94.090406 L 50.478625 97.313063 L 47.822375 97.313063 L 53.134875 97.313063 " transform="matrix(1,0,0,-1,128.787,332.024)"/>
<path style="fill-rule:nonzero;fill:rgb(100%,100%,100%);fill-opacity:1;stroke-width:0.3985;stroke-linecap:butt;stroke-linejoin:miter;stroke:rgb(0%,0%,0%);stroke-opacity:1;stroke-miterlimit:10;" d="M 69.072375 36.090406 L 63.759875 36.090406 L 63.759875 29.645094 L 69.072375 29.645094 L 69.072375 36.090406 L 63.759875 36.090406 L 66.416125 36.090406 L 66.416125 29.645094 L 66.416125 32.86775 L 63.759875 32.86775 L 69.072375 32.86775 " transform="matrix(1,0,0,-1,128.787,332.024)"/>
<path style="fill-rule:nonzero;fill:rgb(100%,100%,100%);fill-opacity:1;stroke-width:0.3985;stroke-linecap:butt;stroke-linejoin:miter;stroke:rgb(0%,0%,0%);stroke-opacity:1;stroke-miterlimit:10;" d="M 69.072375 48.981031 L 63.759875 48.981031 L 63.759875 42.535719 L 69.072375 42.535719 L 69.072375 48.981031 L 63.759875 48.981031 L 66.416125 48.981031 L 66.416125 42.535719 L 66.416125 45.758375 L 63.759875 45.758375 L 69.072375 45.758375 " transform="matrix(1,0,0,-1,128.787,332.024)"/>
<path style="fill-rule:nonzero;fill:rgb(100%,100%,100%);fill-opacity:1;stroke-width:0.3985;stroke-linecap:butt;stroke-linejoin:miter;stroke:rgb(0%,0%,0%);stroke-opacity:1;stroke-miterlimit:10;" d="M 69.072375 61.86775 L 63.759875 61.86775 L 63.759875 55.422438 L 69.072375 55.422438 L 69.072375 61.86775 L 63.759875 61.86775 L 66.416125 61.86775 L 66.416125 55.422438 L 66.416125 58.645094 L 63.759875 58.645094 L 69.072375 58.645094 " transform="matrix(1,0,0,-1,128.787,332.024)"/>
<path style="fill-rule:nonzero;fill:rgb(100%,100%,100%);fill-opacity:1;stroke-width:0.3985;stroke-linecap:butt;stroke-linejoin:miter;stroke:rgb(0%,0%,0%);stroke-opacity:1;stroke-miterlimit:10;" d="M 69.072375 74.758375 L 63.759875 74.758375 L 63.759875 68.313063 L 69.072375 68.313063 L 69.072375 74.758375 L 63.759875 74.758375 L 66.416125 74.758375 L 66.416125 68.313063 L 66.416125 71.535719 L 63.759875 71.535719 L 69.072375 71.535719 " transform="matrix(1,0,0,-1,128.787,332.024)"/>
<path style="fill-rule:nonzero;fill:rgb(100%,100%,100%);fill-opacity:1;stroke-width:0.3985;stroke-linecap:butt;stroke-linejoin:miter;stroke:rgb(0%,0%,0%);stroke-opacity:1;stroke-miterlimit:10;" d="M 69.072375 87.649 L 63.759875 87.649 L 63.759875 81.203688 L 69.072375 81.203688 L 69.072375 87.649 L 63.759875 87.649 L 66.416125 87.649 L 66.416125 81.203688 L 66.416125 84.426344 L 63.759875 84.426344 L 69.072375 84.426344 " transform="matrix(1,0,0,-1,128.787,332.024)"/>
<path style="fill-rule:nonzero;fill:rgb(100%,100%,100%);fill-opacity:1;stroke-width:0.3985;stroke-linecap:butt;stroke-linejoin:miter;stroke:rgb(0%,0%,0%);stroke-opacity:1;stroke-miterlimit:10;" d="M 69.072375 100.535719 L 63.759875 100.535719 L 63.759875 94.090406 L 69.072375 94.090406 L 69.072375 100.535719 L 63.759875 100.535719 L 66.416125 100.535719 L 66.416125 94.090406 L 66.416125 97.313063 L 63.759875 97.313063 L 69.072375 97.313063 " transform="matrix(1,0,0,-1,128.787,332.024)"/>
<path style="fill-rule:nonzero;fill:rgb(100%,100%,100%);fill-opacity:1;stroke-width:0.3985;stroke-linecap:butt;stroke-linejoin:miter;stroke:rgb(0%,0%,0%);stroke-opacity:1;stroke-miterlimit:10;" d="M 85.013781 36.090406 L 79.701281 36.090406 L 79.701281 29.645094 L 85.013781 29.645094 L 85.013781 36.090406 L 79.701281 36.090406 L 82.357531 36.090406 L 82.357531 29.645094 L 82.357531 32.86775 L 79.701281 32.86775 L 85.013781 32.86775 " transform="matrix(1,0,0,-1,128.787,332.024)"/>
<path style="fill-rule:nonzero;fill:rgb(100%,100%,100%);fill-opacity:1;stroke-width:0.3985;stroke-linecap:butt;stroke-linejoin:miter;stroke:rgb(0%,0%,0%);stroke-opacity:1;stroke-miterlimit:10;" d="M 85.013781 48.981031 L 79.701281 48.981031 L 79.701281 42.535719 L 85.013781 42.535719 L 85.013781 48.981031 L 79.701281 48.981031 L 82.357531 48.981031 L 82.357531 42.535719 L 82.357531 45.758375 L 79.701281 45.758375 L 85.013781 45.758375 " transform="matrix(1,0,0,-1,128.787,332.024)"/>
<path style="fill-rule:nonzero;fill:rgb(100%,100%,100%);fill-opacity:1;stroke-width:0.3985;stroke-linecap:butt;stroke-linejoin:miter;stroke:rgb(0%,0%,0%);stroke-opacity:1;stroke-miterlimit:10;" d="M 85.013781 61.86775 L 79.701281 61.86775 L 79.701281 55.422438 L 85.013781 55.422438 L 85.013781 61.86775 L 79.701281 61.86775 L 82.357531 61.86775 L 82.357531 55.422438 L 82.357531 58.645094 L 79.701281 58.645094 L 85.013781 58.645094 " transform="matrix(1,0,0,-1,128.787,332.024)"/>
<path style="fill-rule:nonzero;fill:rgb(100%,100%,100%);fill-opacity:1;stroke-width:0.3985;stroke-linecap:butt;stroke-linejoin:miter;stroke:rgb(0%,0%,0%);stroke-opacity:1;stroke-miterlimit:10;" d="M 85.013781 74.758375 L 79.701281 74.758375 L 79.701281 68.313063 L 85.013781 68.313063 L 85.013781 74.758375 L 79.701281 74.758375 L 82.357531 74.758375 L 82.357531 68.313063 L 82.357531 71.535719 L 79.701281 71.535719 L 85.013781 71.535719 " transform="matrix(1,0,0,-1,128.787,332.024)"/>
<path style="fill-rule:nonzero;fill:rgb(100%,100%,100%);fill-opacity:1;stroke-width:0.3985;stroke-linecap:butt;stroke-linejoin:miter;stroke:rgb(0%,0%,0%);stroke-opacity:1;stroke-miterlimit:10;" d="M 85.013781 87.649 L 79.701281 87.649 L 79.701281 81.203688 L 85.013781 81.203688 L 85.013781 87.649 L 79.701281 87.649 L 82.357531 87.649 L 82.357531 81.203688 L 82.357531 84.426344 L 79.701281 84.426344 L 85.013781 84.426344 " transform="matrix(1,0,0,-1,128.787,332.024)"/>
<path style="fill-rule:nonzero;fill:rgb(100%,100%,100%);fill-opacity:1;stroke-width:0.3985;stroke-linecap:butt;stroke-linejoin:miter;stroke:rgb(0%,0%,0%);stroke-opacity:1;stroke-miterlimit:10;" d="M 85.013781 100.535719 L 79.701281 100.535719 L 79.701281 94.090406 L 85.013781 94.090406 L 85.013781 100.535719 L 79.701281 100.535719 L 82.357531 100.535719 L 82.357531 94.090406 L 82.357531 97.313063 L 79.701281 97.313063 L 85.013781 97.313063 " transform="matrix(1,0,0,-1,128.787,332.024)"/>
<g clip-path="url(#clip1)" clip-rule="nonzero">
<path style="fill:none;stroke-width:0.3985;stroke-linecap:butt;stroke-linejoin:miter;stroke:rgb(0%,0%,0%);stroke-opacity:1;stroke-miterlimit:10;" d="M -0.00184375 12.891188 L 239.103625 12.891188 " transform="matrix(1,0,0,-1,128.787,332.024)"/>
</g>
<path style="fill:none;stroke-width:0.3985;stroke-linecap:butt;stroke-linejoin:miter;stroke:rgb(0%,0%,100%);stroke-opacity:1;stroke-miterlimit:10;" d="M 79.701281 116.004469 C 79.701281 116.004469 86.55675 136.11775 89.189562 142.832594 C 91.822375 149.551344 96.045031 159.149 98.677844 164.402906 C 101.310656 169.660719 105.533312 176.918531 108.166125 180.7115 C 110.798937 184.508375 115.021594 189.426344 117.654406 191.762281 C 120.287219 194.098219 124.509875 196.672438 127.142687 197.547438 C 129.7755 198.422438 133.998156 198.656813 136.630969 198.074781 C 139.263781 197.488844 143.486437 195.383375 146.11925 193.340406 C 148.752062 191.297438 152.974719 186.848219 155.607531 183.344313 C 158.240344 179.840406 162.463 173.051344 165.095812 168.0865 C 167.728625 163.121656 171.951281 153.99275 174.584094 147.570875 C 177.216906 141.145094 181.439562 129.672438 184.072375 121.789625 C 186.705187 113.906813 190.927844 100.094313 193.560656 90.750563 C 196.193469 81.406813 200.416125 65.254469 203.048937 54.449781 C 205.68175 43.649 212.537219 12.887281 212.537219 12.887281 " transform="matrix(1,0,0,-1,128.787,332.024)"/>
<path style="fill-rule:nonzero;fill:rgb(0%,0%,100%);fill-opacity:1;stroke-width:0.3985;stroke-linecap:butt;stroke-linejoin:miter;stroke:rgb(0%,0%,100%);stroke-opacity:1;stroke-miterlimit:10;" d="M 81.693469 116.004469 C 81.693469 117.106031 80.802844 117.996656 79.701281 117.996656 C 78.599719 117.996656 77.709094 117.106031 77.709094 116.004469 C 77.709094 114.902906 78.599719 114.012281 79.701281 114.012281 C 80.802844 114.012281 81.693469 114.902906 81.693469 116.004469 Z M 81.693469 116.004469 " transform="matrix(1,0,0,-1,128.787,332.024)"/>
<path style="fill-rule:nonzero;fill:rgb(0%,0%,100%);fill-opacity:1;stroke-width:0.3985;stroke-linecap:butt;stroke-linejoin:miter;stroke:rgb(0%,0%,100%);stroke-opacity:1;stroke-miterlimit:10;" d="M 91.18175 142.832594 C 91.18175 143.934156 90.291125 144.828688 89.189562 144.828688 C 88.088 144.828688 87.197375 143.934156 87.197375 142.832594 C 87.197375 141.734938 88.088 140.840406 89.189562 140.840406 C 90.291125 140.840406 91.18175 141.734938 91.18175 142.832594 Z M 91.18175 142.832594 " transform="matrix(1,0,0,-1,128.787,332.024)"/>
<path style="fill-rule:nonzero;fill:rgb(0%,0%,100%);fill-opacity:1;stroke-width:0.3985;stroke-linecap:butt;stroke-linejoin:miter;stroke:rgb(0%,0%,100%);stroke-opacity:1;stroke-miterlimit:10;" d="M 100.670031 164.402906 C 100.670031 165.504469 99.779406 166.395094 98.677844 166.395094 C 97.576281 166.395094 96.685656 165.504469 96.685656 164.402906 C 96.685656 163.30525 97.576281 162.410719 98.677844 162.410719 C 99.779406 162.410719 100.670031 163.30525 100.670031 164.402906 Z M 100.670031 164.402906 " transform="matrix(1,0,0,-1,128.787,332.024)"/>
<path style="fill-rule:nonzero;fill:rgb(0%,0%,100%);fill-opacity:1;stroke-width:0.3985;stroke-linecap:butt;stroke-linejoin:miter;stroke:rgb(0%,0%,100%);stroke-opacity:1;stroke-miterlimit:10;" d="M 110.158312 180.7115 C 110.158312 181.813063 109.267687 182.707594 108.166125 182.707594 C 107.064562 182.707594 106.173937 181.813063 106.173937 180.7115 C 106.173937 179.613844 107.064562 178.719313 108.166125 178.719313 C 109.267687 178.719313 110.158312 179.613844 110.158312 180.7115 Z M 110.158312 180.7115 " transform="matrix(1,0,0,-1,128.787,332.024)"/>
<path style="fill-rule:nonzero;fill:rgb(0%,0%,100%);fill-opacity:1;stroke-width:0.3985;stroke-linecap:butt;stroke-linejoin:miter;stroke:rgb(0%,0%,100%);stroke-opacity:1;stroke-miterlimit:10;" d="M 119.646594 191.762281 C 119.646594 192.859938 118.755969 193.754469 117.654406 193.754469 C 116.552844 193.754469 115.662219 192.859938 115.662219 191.762281 C 115.662219 190.660719 116.552844 189.770094 117.654406 189.770094 C 118.755969 189.770094 119.646594 190.660719 119.646594 191.762281 Z M 119.646594 191.762281 " transform="matrix(1,0,0,-1,128.787,332.024)"/>
<path style="fill-rule:nonzero;fill:rgb(0%,0%,100%);fill-opacity:1;stroke-width:0.3985;stroke-linecap:butt;stroke-linejoin:miter;stroke:rgb(0%,0%,100%);stroke-opacity:1;stroke-miterlimit:10;" d="M 129.134875 197.547438 C 129.134875 198.649 128.24425 199.539625 127.142687 199.539625 C 126.041125 199.539625 125.1505 198.649 125.1505 197.547438 C 125.1505 196.445875 126.041125 195.55525 127.142687 195.55525 C 128.24425 195.55525 129.134875 196.445875 129.134875 197.547438 Z M 129.134875 197.547438 " transform="matrix(1,0,0,-1,128.787,332.024)"/>
<path style="fill-rule:nonzero;fill:rgb(0%,0%,100%);fill-opacity:1;stroke-width:0.3985;stroke-linecap:butt;stroke-linejoin:miter;stroke:rgb(0%,0%,100%);stroke-opacity:1;stroke-miterlimit:10;" d="M 138.623156 198.074781 C 138.623156 199.176344 137.732531 200.066969 136.630969 200.066969 C 135.529406 200.066969 134.638781 199.176344 134.638781 198.074781 C 134.638781 196.973219 135.529406 196.082594 136.630969 196.082594 C 137.732531 196.082594 138.623156 196.973219 138.623156 198.074781 Z M 138.623156 198.074781 " transform="matrix(1,0,0,-1,128.787,332.024)"/>
<path style="fill-rule:nonzero;fill:rgb(0%,0%,100%);fill-opacity:1;stroke-width:0.3985;stroke-linecap:butt;stroke-linejoin:miter;stroke:rgb(0%,0%,100%);stroke-opacity:1;stroke-miterlimit:10;" d="M 148.111437 193.340406 C 148.111437 194.438063 147.220812 195.332594 146.11925 195.332594 C 145.017687 195.332594 144.127062 194.438063 144.127062 193.340406 C 144.127062 192.238844 145.017687 191.348219 146.11925 191.348219 C 147.220812 191.348219 148.111437 192.238844 148.111437 193.340406 Z M 148.111437 193.340406 " transform="matrix(1,0,0,-1,128.787,332.024)"/>
<path style="fill-rule:nonzero;fill:rgb(0%,0%,100%);fill-opacity:1;stroke-width:0.3985;stroke-linecap:butt;stroke-linejoin:miter;stroke:rgb(0%,0%,100%);stroke-opacity:1;stroke-miterlimit:10;" d="M 157.599719 183.344313 C 157.599719 184.445875 156.705187 185.3365 155.607531 185.3365 C 154.505969 185.3365 153.615344 184.445875 153.615344 183.344313 C 153.615344 182.24275 154.505969 181.352125 155.607531 181.352125 C 156.705187 181.352125 157.599719 182.24275 157.599719 183.344313 Z M 157.599719 183.344313 " transform="matrix(1,0,0,-1,128.787,332.024)"/>
<path style="fill-rule:nonzero;fill:rgb(0%,0%,100%);fill-opacity:1;stroke-width:0.3985;stroke-linecap:butt;stroke-linejoin:miter;stroke:rgb(0%,0%,100%);stroke-opacity:1;stroke-miterlimit:10;" d="M 167.088 168.0865 C 167.088 169.188063 166.193469 170.078688 165.095812 170.078688 C 163.99425 170.078688 163.103625 169.188063 163.103625 168.0865 C 163.103625 166.984938 163.99425 166.094313 165.095812 166.094313 C 166.193469 166.094313 167.088 166.984938 167.088 168.0865 Z M 167.088 168.0865 " transform="matrix(1,0,0,-1,128.787,332.024)"/>
<path style="fill-rule:nonzero;fill:rgb(0%,0%,100%);fill-opacity:1;stroke-width:0.3985;stroke-linecap:butt;stroke-linejoin:miter;stroke:rgb(0%,0%,100%);stroke-opacity:1;stroke-miterlimit:10;" d="M 176.576281 147.570875 C 176.576281 148.668531 175.68175 149.563063 174.584094 149.563063 C 173.482531 149.563063 172.591906 148.668531 172.591906 147.570875 C 172.591906 146.469313 173.482531 145.574781 174.584094 145.574781 C 175.68175 145.574781 176.576281 146.469313 176.576281 147.570875 Z M 176.576281 147.570875 " transform="matrix(1,0,0,-1,128.787,332.024)"/>
<path style="fill-rule:nonzero;fill:rgb(0%,0%,100%);fill-opacity:1;stroke-width:0.3985;stroke-linecap:butt;stroke-linejoin:miter;stroke:rgb(0%,0%,100%);stroke-opacity:1;stroke-miterlimit:10;" d="M 186.064562 121.789625 C 186.064562 122.891188 185.170031 123.781813 184.072375 123.781813 C 182.970812 123.781813 182.080187 122.891188 182.080187 121.789625 C 182.080187 120.691969 182.970812 119.797438 184.072375 119.797438 C 185.170031 119.797438 186.064562 120.691969 186.064562 121.789625 Z M 186.064562 121.789625 " transform="matrix(1,0,0,-1,128.787,332.024)"/>
<path style="fill-rule:nonzero;fill:rgb(0%,0%,100%);fill-opacity:1;stroke-width:0.3985;stroke-linecap:butt;stroke-linejoin:miter;stroke:rgb(0%,0%,100%);stroke-opacity:1;stroke-miterlimit:10;" d="M 195.552844 90.750563 C 195.552844 91.852125 194.658312 92.74275 193.560656 92.74275 C 192.459094 92.74275 191.568469 91.852125 191.568469 90.750563 C 191.568469 89.649 192.459094 88.758375 193.560656 88.758375 C 194.658312 88.758375 195.552844 89.649 195.552844 90.750563 Z M 195.552844 90.750563 " transform="matrix(1,0,0,-1,128.787,332.024)"/>
<path style="fill-rule:nonzero;fill:rgb(0%,0%,100%);fill-opacity:1;stroke-width:0.3985;stroke-linecap:butt;stroke-linejoin:miter;stroke:rgb(0%,0%,100%);stroke-opacity:1;stroke-miterlimit:10;" d="M 205.041125 54.449781 C 205.041125 55.551344 204.146594 56.441969 203.048937 56.441969 C 201.947375 56.441969 201.05675 55.551344 201.05675 54.449781 C 201.05675 53.348219 201.947375 52.457594 203.048937 52.457594 C 204.146594 52.457594 205.041125 53.348219 205.041125 54.449781 Z M 205.041125 54.449781 " transform="matrix(1,0,0,-1,128.787,332.024)"/>
<path style="fill-rule:nonzero;fill:rgb(0%,0%,100%);fill-opacity:1;stroke-width:0.3985;stroke-linecap:butt;stroke-linejoin:miter;stroke:rgb(0%,0%,100%);stroke-opacity:1;stroke-miterlimit:10;" d="M 214.529406 12.887281 C 214.529406 13.988844 213.634875 14.883375 212.537219 14.883375 C 211.435656 14.883375 210.545031 13.988844 210.545031 12.887281 C 210.545031 11.789625 211.435656 10.895094 212.537219 10.895094 C 213.634875 10.895094 214.529406 11.789625 214.529406 12.887281 Z M 214.529406 12.887281 " transform="matrix(1,0,0,-1,128.787,332.024)"/>
</g>
</svg>
