<?xml version="1.0" encoding="UTF-8"?>
<svg xmlns="http://www.w3.org/2000/svg" xmlns:xlink="http://www.w3.org/1999/xlink" width="612pt" height="792pt" viewBox="0 0 612 792" version="1.1">
<g id="surface1">
<path style="fill-rule:nonzero;fill:rgb(100%,79.998779%,79.998779%);fill-opacity:1;stroke-width:0.3985;stroke-linecap:butt;stroke-linejoin:miter;stroke:rgb(0%,0%,0%);stroke-opacity:1;stroke-miterlimit:10;" d="M 85.040719 -56.692313 C 85.040719 -48.864188 46.9665 -42.520438 0.00165625 -42.520438 C -46.967094 -42.520438 -85.041313 -48.864188 -85.041313 -56.692313 C -85.041313 -64.520438 -46.967094 -70.868094 0.00165625 -70.868094 C 46.9665 -70.868094 85.040719 -64.520438 85.040719 -56.692313 Z M 85.040719 -56.692313 " transform="matrix(1,0,0,-1,239.596,138.753)"/>
<path style="fill-rule:nonzero;fill:rgb(100%,100%,100%);fill-opacity:1;stroke-width:0.3985;stroke-linecap:butt;stroke-linejoin:miter;stroke:rgb(0%,0%,0%);stroke-opacity:1;stroke-miterlimit:10;" d="M 0.00165625 -0.00090625 L 0.00165625 -56.692313 L 28.345406 -56.692313 L 32.400094 -52.329031 L 32.400094 3.741281 L 4.364937 3.741281 Z M 0.00165625 -0.00090625 " transform="matrix(1,0,0,-1,239.596,138.753)"/>
<path style="fill:none;stroke-width:0.3985;stroke-linecap:butt;stroke-linejoin:miter;stroke:rgb(0%,0%,0%);stroke-opacity:1;stroke-miterlimit:10;" d="M 28.345406 -0.00090625 L 28.345406 -56.692313 " transform="matrix(1,0,0,-1,239.596,138.753)"/>
<path style="fill:none;stroke-width:0.3985;stroke-linecap:butt;stroke-linejoin:miter;stroke:rgb(0%,0%,0%);stroke-opacity:1;stroke-miterlimit:10;" d="M 0.00165625 -0.00090625 L 28.345406 -0.00090625 L 32.400094 3.741281 " transform="matrix(1,0,0,-1,239.596,138.753)"/>
<path style="fill:none;stroke-width:0.3985;stroke-linecap:butt;stroke-linejoin:miter;stroke:rgb(0%,0%,0%);stroke-opacity:1;stroke-miterlimit:10;" d="M 0.00165625 -28.348563 L 28.345406 -28.348563 L 32.400094 -24.293875 " transform="matrix(1,0,0,-1,239.596,138.753)"/>
<path style="fill:none;stroke-width:0.3985;stroke-linecap:butt;stroke-linejoin:miter;stroke:rgb(0%,0%,0%);stroke-opacity:1;stroke-miterlimit:10;" d="M 85.040719 -0.00090625 C 85.040719 7.045969 46.9665 12.756906 0.00165625 12.756906 C -46.967094 12.756906 -85.041313 7.045969 -85.041313 -0.00090625 C -85.041313 -7.043875 -46.967094 -12.754813 0.00165625 -12.754813 C 46.9665 -12.754813 85.040719 -7.043875 85.040719 -0.00090625 Z M 85.040719 -0.00090625 " transform="matrix(1,0,0,-1,239.596,138.753)"/>
<path style="fill:none;stroke-width:0.3985;stroke-linecap:butt;stroke-linejoin:miter;stroke:rgb(0%,0%,0%);stroke-opacity:1;stroke-miterlimit:10;" d="M 85.040719 -0.00090625 L 85.040719 -56.692313 " transform="matrix(1,0,0,-1,239.596,138.753)"/>
<path style="fill:none;stroke-width:0.3985;stroke-linecap:butt;stroke-linejoin:miter;stroke:rgb(0%,0%,0%);stroke-opacity:1;stroke-miterlimit:10;" d="M -85.041313 -0.00090625 L -85.041313 -56.692313 " transform="matrix(1,0,0,-1,239.596,138.753)"/>
</g>
</svg>
