<?xml version="1.0" encoding="UTF-8"?>
<svg xmlns="http://www.w3.org/2000/svg" xmlns:xlink="http://www.w3.org/1999/xlink" width="612pt" height="792pt" viewBox="0 0 612 792" version="1.1">
<g id="surface1">
<path style=" stroke:none;fill-rule:nonzero;fill:rgb(79.998779%,79.998779%,100%);fill-opacity:1;" d="M 143.160156 217.726563 L 143.160156 156.582031 L 154.5 156.582031 L 154.5 217.726563 Z M 143.160156 217.726563 "/>
<path style=" stroke:none;fill-rule:nonzero;fill:rgb(94.999695%,94.999695%,100%);fill-opacity:1;" d="M 154.5 217.726563 L 154.5 156.582031 L 199.855469 156.582031 L 199.855469 217.726563 Z M 154.5 217.726563 "/>
<path style="fill:none;stroke-width:0.3985;stroke-linecap:butt;stroke-linejoin:miter;stroke:rgb(0%,0%,0%);stroke-opacity:1;stroke-miterlimit:10;" d="M 0.00015625 -0.0005625 L 0.00015625 91.729906 L 56.695469 91.729906 L 56.695469 -0.0005625 Z M 0.00015625 -0.0005625 " transform="matrix(1,0,0,-1,143.16,217.726)"/>
<path style="fill:none;stroke-width:0.3985;stroke-linecap:butt;stroke-linejoin:miter;stroke:rgb(0%,0%,0%);stroke-opacity:1;stroke-miterlimit:10;" d="M 0.00015625 30.585375 L 56.695469 30.585375 " transform="matrix(1,0,0,-1,143.16,217.726)"/>
<path style="fill:none;stroke-width:0.3985;stroke-linecap:butt;stroke-linejoin:miter;stroke:rgb(0%,0%,0%);stroke-opacity:1;stroke-miterlimit:10;" d="M 0.00015625 61.143969 L 56.695469 61.143969 " transform="matrix(1,0,0,-1,143.16,217.726)"/>
<path style="fill:none;stroke-width:0.3985;stroke-linecap:butt;stroke-linejoin:miter;stroke:rgb(0%,0%,0%);stroke-opacity:1;stroke-miterlimit:10;" d="M 0.00015625 91.729906 L -14.171719 91.729906 L 0.00015625 70.866625 " transform="matrix(1,0,0,-1,143.16,217.726)"/>
<path style="fill:none;stroke-width:0.3985;stroke-linecap:butt;stroke-linejoin:miter;stroke:rgb(0%,0%,0%);stroke-opacity:1;stroke-miterlimit:10;" d="M 56.695469 91.729906 L 85.039219 91.729906 L 99.215 35.034594 L 93.543125 29.366625 L 79.37125 86.061937 L 56.695469 86.061937 " transform="matrix(1,0,0,-1,143.16,217.726)"/>
<path style="fill:none;stroke-width:0.3985;stroke-linecap:butt;stroke-linejoin:miter;stroke:rgb(0%,0%,0%);stroke-opacity:1;stroke-dasharray:2.98883,2.98883;stroke-miterlimit:10;" d="M 11.34 -0.0005625 L 11.34 91.729906 " transform="matrix(1,0,0,-1,143.16,217.726)"/>
<path style="fill:none;stroke-width:0.3985;stroke-linecap:butt;stroke-linejoin:miter;stroke:rgb(0%,0%,0%);stroke-opacity:1;stroke-dasharray:2.98883,2.98883;stroke-miterlimit:10;" d="M 22.675938 -0.0005625 L 22.675938 91.729906 " transform="matrix(1,0,0,-1,143.16,217.726)"/>
<path style="fill:none;stroke-width:0.3985;stroke-linecap:butt;stroke-linejoin:miter;stroke:rgb(0%,0%,0%);stroke-opacity:1;stroke-dasharray:2.98883,2.98883;stroke-miterlimit:10;" d="M 34.015781 -0.0005625 L 34.015781 91.729906 " transform="matrix(1,0,0,-1,143.16,217.726)"/>
<path style="fill:none;stroke-width:0.3985;stroke-linecap:butt;stroke-linejoin:miter;stroke:rgb(0%,0%,0%);stroke-opacity:1;stroke-dasharray:2.98883,2.98883;stroke-miterlimit:10;" d="M 45.355625 -0.0005625 L 45.355625 91.729906 " transform="matrix(1,0,0,-1,143.16,217.726)"/>
</g>
</svg>
