<?xml version="1.0" encoding="UTF-8"?>
<svg xmlns="http://www.w3.org/2000/svg" xmlns:xlink="http://www.w3.org/1999/xlink" width="612pt" height="792pt" viewBox="0 0 612 792" version="1.1">
<g id="surface1">
<path style=" stroke:none;fill-rule:nonzero;fill:rgb(100%,79.998779%,79.998779%);fill-opacity:1;" d="M 157.238281 210.9375 L 213.929688 210.9375 L 213.929688 182.589844 L 157.238281 210.9375 "/>
<path style="fill:none;stroke-width:0.3985;stroke-linecap:butt;stroke-linejoin:miter;stroke:rgb(0%,0%,0%);stroke-opacity:1;stroke-miterlimit:10;" d="M 245.670813 9.448719 C 243.334875 14.108875 245.221594 19.78075 249.885656 22.112781 C 254.545813 24.448719 260.213781 22.562 261.659094 19.683094 " transform="matrix(1,0,0,-1,-69.538,210.937)"/>
<path style=" stroke:none;fill-rule:nonzero;fill:rgb(0%,0%,0%);fill-opacity:1;" d="M 193.011719 193.035156 L 193.007813 189.472656 L 192.121094 191.253906 L 190.15625 190.898438 "/>
<path style=" stroke:none;fill-rule:nonzero;fill:rgb(79.998779%,79.998779%,100%);fill-opacity:1;" d="M 213.929688 210.9375 L 242.277344 210.9375 L 242.277344 182.589844 L 213.929688 182.589844 L 213.929688 210.9375 "/>
<path style=" stroke:none;fill-rule:nonzero;fill:rgb(89.99939%,89.99939%,89.99939%);fill-opacity:1;" d="M 213.929688 182.589844 L 242.277344 182.589844 L 242.277344 210.9375 L 270.625 154.242188 L 213.929688 182.589844 "/>
<path style="fill:none;stroke-width:0.3985;stroke-linecap:butt;stroke-linejoin:miter;stroke:rgb(50%,50%,50%);stroke-opacity:1;stroke-dasharray:2.98883,2.98883;stroke-miterlimit:10;" d="M 311.815344 42.519031 L 311.815344 28.347156 L 325.987219 28.347156 " transform="matrix(1,0,0,-1,-69.538,210.937)"/>
<path style="fill:none;stroke-width:0.3985;stroke-linecap:butt;stroke-linejoin:miter;stroke:rgb(50%,50%,50%);stroke-opacity:1;stroke-dasharray:2.98883,2.98883;stroke-miterlimit:10;" d="M 311.815344 -0.0005 L 340.163 14.175281 " transform="matrix(1,0,0,-1,-69.538,210.937)"/>
<path style="fill:none;stroke-width:0.3985;stroke-linecap:butt;stroke-linejoin:miter;stroke:rgb(0%,0%,0%);stroke-opacity:1;stroke-miterlimit:10;" d="M 302.362219 33.069813 C 306.920813 20.546375 315.748938 10.026844 325.561438 4.362781 " transform="matrix(1,0,0,-1,-69.538,210.937)"/>
<path style=" stroke:none;fill-rule:nonzero;fill:rgb(0%,0%,0%);fill-opacity:1;" d="M 257.753906 207.574219 L 255.785156 204.589844 L 256.023438 206.574219 L 254.183594 207.359375 "/>
<path style="fill:none;stroke-width:0.3985;stroke-linecap:butt;stroke-linejoin:miter;stroke:rgb(0%,0%,0%);stroke-opacity:1;stroke-miterlimit:10;" d="M 330.709875 37.796375 C 335.370031 35.460438 337.25675 29.788563 334.924719 25.128406 C 332.596594 20.479969 326.94425 18.589344 324.077063 20.011219 " transform="matrix(1,0,0,-1,-69.538,210.937)"/>
<path style=" stroke:none;fill-rule:nonzero;fill:rgb(0%,0%,0%);fill-opacity:1;" d="M 252.75 190.035156 L 254.902344 192.890625 L 254.539063 190.925781 L 256.324219 190.027344 "/>
<path style="fill:none;stroke-width:0.19925;stroke-linecap:butt;stroke-linejoin:miter;stroke:rgb(0%,0%,0%);stroke-opacity:0.5;stroke-miterlimit:10;" d="M 198.428625 -28.348156 L 368.50675 -28.348156 M 198.428625 -0.0005 L 368.50675 -0.0005 M 198.428625 28.347156 L 368.50675 28.347156 M 198.428625 56.694813 L 368.50675 56.694813 M 198.428625 85.03075 L 368.50675 85.03075 M 198.428625 -28.348156 L 198.428625 85.038563 M 226.776281 -28.348156 L 226.776281 85.038563 M 255.120031 -28.348156 L 255.120031 85.038563 M 283.467688 -28.348156 L 283.467688 85.038563 M 311.815344 -28.348156 L 311.815344 85.038563 M 340.163 -28.348156 L 340.163 85.038563 M 368.498938 -28.348156 L 368.498938 85.038563 " transform="matrix(1,0,0,-1,-69.538,210.937)"/>
<path style="fill:none;stroke-width:0.79701;stroke-linecap:butt;stroke-linejoin:miter;stroke:rgb(0%,0%,0%);stroke-opacity:1;stroke-miterlimit:10;" d="M 255.120031 -0.0005 L 283.467688 -0.0005 L 283.467688 28.347156 L 255.120031 28.347156 L 255.120031 -0.0005 " transform="matrix(1,0,0,-1,-69.538,210.937)"/>
<path style="fill:none;stroke-width:0.79701;stroke-linecap:butt;stroke-linejoin:miter;stroke:rgb(0%,0%,0%);stroke-opacity:1;stroke-miterlimit:10;" d="M 283.467688 -0.0005 L 311.815344 -0.0005 L 311.815344 28.347156 L 283.467688 28.347156 L 283.467688 -0.0005 " transform="matrix(1,0,0,-1,-69.538,210.937)"/>
<path style="fill:none;stroke-width:0.79701;stroke-linecap:butt;stroke-linejoin:miter;stroke:rgb(0%,0%,0%);stroke-opacity:1;stroke-miterlimit:10;" d="M 311.815344 -0.0005 L 340.163 -0.0005 L 340.163 28.347156 L 311.815344 28.347156 L 311.815344 -0.0005 " transform="matrix(1,0,0,-1,-69.538,210.937)"/>
</g>
</svg>
