<?xml version="1.0" encoding="UTF-8"?>
<svg xmlns="http://www.w3.org/2000/svg" xmlns:xlink="http://www.w3.org/1999/xlink" width="612pt" height="792pt" viewBox="0 0 612 792" version="1.1">
<g id="surface1">
<path style=" stroke:none;fill-rule:nonzero;fill:rgb(100%,98.469543%,70.001221%);fill-opacity:1;" d="M 128.785156 332.019531 L 367.890625 332.019531 L 367.890625 125.796875 L 128.785156 125.796875 Z M 128.785156 332.019531 "/>
<path style="fill:none;stroke-width:1.19553;stroke-linecap:butt;stroke-linejoin:miter;stroke:rgb(0%,0%,0%);stroke-opacity:1;stroke-miterlimit:10;" d="M 23.912219 25.777812 L 23.912219 128.891094 L 71.732531 154.668437 L 71.732531 103.11375 L 23.912219 77.3325 L 167.373156 77.3325 L 167.373156 25.777812 L 167.373156 128.891094 L 215.193469 154.668437 L 215.193469 51.555156 L 215.193469 103.11375 L 167.373156 77.3325 L 215.193469 103.11375 L 215.193469 180.445781 L 71.732531 180.445781 L 71.732531 103.11375 L 167.373156 103.11375 " transform="matrix(1,0,0,-1,128.787,332.02)"/>
<path style="fill-rule:nonzero;fill:rgb(69.999695%,69.999695%,69.999695%);fill-opacity:1;stroke-width:1.19553;stroke-linecap:butt;stroke-linejoin:miter;stroke:rgb(0%,0%,100%);stroke-opacity:1;stroke-miterlimit:10;" d="M 71.732531 154.668437 L 71.732531 180.445781 L 215.193469 180.445781 L 215.193469 154.668437 L 71.732531 154.668437 " transform="matrix(1,0,0,-1,128.787,332.02)"/>
<path style="fill:none;stroke-width:1.19553;stroke-linecap:butt;stroke-linejoin:miter;stroke:rgb(0%,0%,0%);stroke-opacity:1;stroke-dasharray:1.19553,1.99255;stroke-miterlimit:10;" d="M 167.373156 103.11375 L 215.193469 103.11375 " transform="matrix(1,0,0,-1,128.787,332.02)"/>
<path style="fill:none;stroke-width:1.19553;stroke-linecap:butt;stroke-linejoin:miter;stroke:rgb(0%,0%,0%);stroke-opacity:1;stroke-dasharray:1.19553,1.99255;stroke-miterlimit:10;" d="M 71.732531 103.11375 L 71.732531 77.3325 " transform="matrix(1,0,0,-1,128.787,332.02)"/>
<path style="fill:none;stroke-width:1.19553;stroke-linecap:butt;stroke-linejoin:miter;stroke:rgb(0%,0%,0%);stroke-opacity:1;stroke-miterlimit:10;" d="M 71.732531 51.555156 L 71.732531 77.3325 " transform="matrix(1,0,0,-1,128.787,332.02)"/>
<path style="fill:none;stroke-width:0.79701;stroke-linecap:butt;stroke-linejoin:miter;stroke:rgb(100%,0%,0%);stroke-opacity:1;stroke-dasharray:2.98883,2.98883;stroke-miterlimit:10;" d="M 215.189562 154.664531 L 213.939562 155.660625 L 212.677844 156.637187 L 211.404406 157.598125 L 210.123156 158.543437 L 208.826281 159.469219 L 207.521594 160.375469 L 206.205187 161.266094 L 204.877062 162.137187 L 203.537219 162.984844 L 202.189562 163.816875 L 200.830187 164.629375 L 199.459094 165.42625 L 198.084094 166.199687 L 196.697375 166.9575 L 195.298937 167.691875 L 193.896594 168.414531 L 192.482531 169.105937 L 191.05675 169.781719 L 189.630969 170.437969 L 188.193469 171.0825 L 186.748156 171.695781 L 185.295031 172.289531 L 183.834094 172.867656 L 182.36925 173.42625 L 180.9005 173.961406 L 179.416125 174.469219 L 177.93175 174.965312 L 176.443469 175.441875 L 174.947375 175.891094 L 173.439562 176.320781 L 171.935656 176.730937 L 170.423937 177.121562 L 168.908312 177.484844 L 167.388781 177.828594 L 165.865344 178.156719 L 164.334094 178.465312 L 162.802844 178.742656 L 161.267687 179.000469 L 159.728625 179.242656 L 158.189562 179.461406 L 156.642687 179.656719 L 155.099719 179.828594 L 153.548937 179.980937 L 152.002062 180.109844 L 150.451281 180.219219 L 148.9005 180.305156 L 147.345812 180.375469 L 145.795031 180.418437 L 144.240344 180.437969 L 142.689562 180.437969 L 141.130969 180.418437 L 139.580187 180.375469 L 138.029406 180.305156 L 136.474719 180.219219 L 134.923937 180.109844 L 133.377062 179.980937 L 131.826281 179.828594 L 130.283312 179.652812 L 128.740344 179.461406 L 127.197375 179.242656 L 125.658312 179.000469 L 124.123156 178.742656 L 122.591906 178.465312 L 121.064562 178.156719 L 119.541125 177.8325 L 118.017687 177.484844 L 116.502062 177.121562 L 114.99425 176.730937 L 113.486437 176.320781 L 111.982531 175.891094 L 110.482531 175.441875 L 108.99425 174.965312 L 107.509875 174.473125 L 106.029406 173.961406 L 104.55675 173.42625 L 103.091906 172.867656 L 101.630969 172.289531 L 100.177844 171.695781 L 98.736437 171.0825 L 97.298937 170.441875 L 95.865344 169.781719 L 94.447375 169.105937 L 93.033312 168.414531 L 91.630969 167.691875 L 90.232531 166.9575 L 88.845812 166.199687 L 87.466906 165.430156 L 86.099719 164.629375 L 84.740344 163.816875 L 83.392687 162.98875 L 82.052844 162.137187 L 80.724719 161.266094 L 79.408312 160.375469 L 78.099719 159.473125 L 76.802844 158.547344 L 75.521594 157.602031 L 74.252062 156.641094 L 72.986437 155.660625 L 71.732531 154.668437 " transform="matrix(1,0,0,-1,128.787,332.02)"/>
</g>
</svg>
