<?xml version="1.0" encoding="UTF-8"?>
<svg xmlns="http://www.w3.org/2000/svg" xmlns:xlink="http://www.w3.org/1999/xlink" width="612pt" height="792pt" viewBox="0 0 612 792" version="1.1">
<g id="surface1">
<path style=" stroke:none;fill-rule:nonzero;fill:rgb(79.998779%,79.998779%,100%);fill-opacity:1;" d="M 143.160156 217.726563 L 143.160156 156.582031 L 199.855469 156.582031 L 199.855469 217.726563 Z M 143.160156 217.726563 "/>
<path style="fill:none;stroke-width:0.3985;stroke-linecap:butt;stroke-linejoin:miter;stroke:rgb(0%,0%,0%);stroke-opacity:1;stroke-miterlimit:10;" d="M 0.00015625 -0.0005625 L 0.00015625 91.729906 L 56.695469 91.729906 L 56.695469 -0.0005625 Z M 0.00015625 -0.0005625 " transform="matrix(1,0,0,-1,143.16,217.726)"/>
<path style="fill:none;stroke-width:0.3985;stroke-linecap:butt;stroke-linejoin:miter;stroke:rgb(0%,0%,0%);stroke-opacity:1;stroke-miterlimit:10;" d="M 0.00015625 30.585375 L 56.695469 30.585375 " transform="matrix(1,0,0,-1,143.16,217.726)"/>
<path style="fill:none;stroke-width:0.3985;stroke-linecap:butt;stroke-linejoin:miter;stroke:rgb(0%,0%,0%);stroke-opacity:1;stroke-miterlimit:10;" d="M 0.00015625 61.143969 L 56.695469 61.143969 " transform="matrix(1,0,0,-1,143.16,217.726)"/>
<path style="fill:none;stroke-width:0.3985;stroke-linecap:butt;stroke-linejoin:miter;stroke:rgb(0%,0%,0%);stroke-opacity:1;stroke-miterlimit:10;" d="M 0.00015625 91.729906 L -14.171719 91.729906 L 0.00015625 70.866625 " transform="matrix(1,0,0,-1,143.16,217.726)"/>
<path style="fill:none;stroke-width:0.3985;stroke-linecap:butt;stroke-linejoin:miter;stroke:rgb(0%,0%,0%);stroke-opacity:1;stroke-miterlimit:10;" d="M 56.695469 91.729906 L 85.039219 91.729906 L 99.215 35.034594 L 93.543125 29.366625 L 79.37125 86.061937 L 56.695469 86.061937 " transform="matrix(1,0,0,-1,143.16,217.726)"/>
<path style=" stroke:none;fill-rule:nonzero;fill:rgb(79.998779%,79.998779%,100%);fill-opacity:1;" d="M 256.546875 217.726563 L 256.546875 156.582031 L 313.242188 156.582031 L 313.242188 217.726563 Z M 256.546875 217.726563 "/>
<path style="fill:none;stroke-width:0.3985;stroke-linecap:butt;stroke-linejoin:miter;stroke:rgb(0%,0%,0%);stroke-opacity:1;stroke-miterlimit:10;" d="M 113.386875 -0.0005625 L 113.386875 91.729906 L 170.082188 91.729906 L 170.082188 -0.0005625 Z M 113.386875 -0.0005625 " transform="matrix(1,0,0,-1,143.16,217.726)"/>
<path style="fill:none;stroke-width:0.3985;stroke-linecap:butt;stroke-linejoin:miter;stroke:rgb(0%,0%,0%);stroke-opacity:1;stroke-miterlimit:10;" d="M 113.386875 30.585375 L 170.082188 30.585375 " transform="matrix(1,0,0,-1,143.16,217.726)"/>
<path style="fill:none;stroke-width:0.3985;stroke-linecap:butt;stroke-linejoin:miter;stroke:rgb(0%,0%,0%);stroke-opacity:1;stroke-miterlimit:10;" d="M 113.386875 61.143969 L 170.082188 61.143969 " transform="matrix(1,0,0,-1,143.16,217.726)"/>
<path style="fill:none;stroke-width:0.3985;stroke-linecap:butt;stroke-linejoin:miter;stroke:rgb(0%,0%,0%);stroke-opacity:1;stroke-miterlimit:10;" d="M 113.386875 91.729906 L 99.215 91.729906 L 113.386875 70.866625 " transform="matrix(1,0,0,-1,143.16,217.726)"/>
<path style="fill:none;stroke-width:0.3985;stroke-linecap:butt;stroke-linejoin:miter;stroke:rgb(0%,0%,0%);stroke-opacity:1;stroke-miterlimit:10;" d="M 170.082188 91.729906 L 198.425938 91.729906 L 212.601719 35.034594 L 206.929844 29.366625 L 192.757969 86.061937 L 170.082188 86.061937 " transform="matrix(1,0,0,-1,143.16,217.726)"/>
<path style=" stroke:none;fill-rule:nonzero;fill:rgb(79.998779%,79.998779%,100%);fill-opacity:1;" d="M 369.933594 217.726563 L 369.933594 156.582031 L 426.628906 156.582031 L 426.628906 217.726563 Z M 369.933594 217.726563 "/>
<path style="fill:none;stroke-width:0.3985;stroke-linecap:butt;stroke-linejoin:miter;stroke:rgb(0%,0%,0%);stroke-opacity:1;stroke-miterlimit:10;" d="M 226.773594 -0.0005625 L 226.773594 91.729906 L 283.468906 91.729906 L 283.468906 -0.0005625 Z M 226.773594 -0.0005625 " transform="matrix(1,0,0,-1,143.16,217.726)"/>
<path style="fill:none;stroke-width:0.3985;stroke-linecap:butt;stroke-linejoin:miter;stroke:rgb(0%,0%,0%);stroke-opacity:1;stroke-miterlimit:10;" d="M 226.773594 30.585375 L 283.468906 30.585375 " transform="matrix(1,0,0,-1,143.16,217.726)"/>
<path style="fill:none;stroke-width:0.3985;stroke-linecap:butt;stroke-linejoin:miter;stroke:rgb(0%,0%,0%);stroke-opacity:1;stroke-miterlimit:10;" d="M 226.773594 61.143969 L 283.468906 61.143969 " transform="matrix(1,0,0,-1,143.16,217.726)"/>
<path style="fill:none;stroke-width:0.3985;stroke-linecap:butt;stroke-linejoin:miter;stroke:rgb(0%,0%,0%);stroke-opacity:1;stroke-miterlimit:10;" d="M 226.773594 91.729906 L 212.601719 91.729906 L 226.773594 70.866625 " transform="matrix(1,0,0,-1,143.16,217.726)"/>
<path style="fill:none;stroke-width:0.3985;stroke-linecap:butt;stroke-linejoin:miter;stroke:rgb(0%,0%,0%);stroke-opacity:1;stroke-miterlimit:10;" d="M 283.468906 91.729906 L 311.816563 91.729906 L 325.988438 35.034594 L 320.320469 29.366625 L 306.144688 86.061937 L 283.468906 86.061937 " transform="matrix(1,0,0,-1,143.16,217.726)"/>
<path style=" stroke:none;fill-rule:nonzero;fill:rgb(79.998779%,79.998779%,100%);fill-opacity:1;" d="M 483.320313 217.726563 L 483.320313 156.582031 L 540.015625 156.582031 L 540.015625 217.726563 Z M 483.320313 217.726563 "/>
<path style="fill:none;stroke-width:0.3985;stroke-linecap:butt;stroke-linejoin:miter;stroke:rgb(0%,0%,0%);stroke-opacity:1;stroke-miterlimit:10;" d="M 340.160313 -0.0005625 L 340.160313 91.729906 L 396.855625 91.729906 L 396.855625 -0.0005625 Z M 340.160313 -0.0005625 " transform="matrix(1,0,0,-1,143.16,217.726)"/>
<path style="fill:none;stroke-width:0.3985;stroke-linecap:butt;stroke-linejoin:miter;stroke:rgb(0%,0%,0%);stroke-opacity:1;stroke-miterlimit:10;" d="M 340.160313 30.585375 L 396.855625 30.585375 " transform="matrix(1,0,0,-1,143.16,217.726)"/>
<path style="fill:none;stroke-width:0.3985;stroke-linecap:butt;stroke-linejoin:miter;stroke:rgb(0%,0%,0%);stroke-opacity:1;stroke-miterlimit:10;" d="M 340.160313 61.143969 L 396.855625 61.143969 " transform="matrix(1,0,0,-1,143.16,217.726)"/>
<path style="fill:none;stroke-width:0.3985;stroke-linecap:butt;stroke-linejoin:miter;stroke:rgb(0%,0%,0%);stroke-opacity:1;stroke-miterlimit:10;" d="M 340.160313 91.729906 L 325.988438 91.729906 L 340.160313 70.866625 " transform="matrix(1,0,0,-1,143.16,217.726)"/>
<path style="fill:none;stroke-width:0.3985;stroke-linecap:butt;stroke-linejoin:miter;stroke:rgb(0%,0%,0%);stroke-opacity:1;stroke-miterlimit:10;" d="M 396.855625 91.729906 L 425.203281 91.729906 L 439.375156 35.034594 L 433.707188 29.366625 L 419.531406 86.061937 L 396.855625 86.061937 " transform="matrix(1,0,0,-1,143.16,217.726)"/>
</g>
</svg>
