<?xml version="1.0" encoding="UTF-8"?>
<svg xmlns="http://www.w3.org/2000/svg" xmlns:xlink="http://www.w3.org/1999/xlink" width="612pt" height="792pt" viewBox="0 0 612 792" version="1.1">
<g id="surface1">
<path style=" stroke:none;fill-rule:nonzero;fill:rgb(100%,79.998779%,79.998779%);fill-opacity:1;" d="M 157.234375 210.9375 L 185.578125 210.9375 L 185.578125 182.589844 L 213.925781 182.589844 L 213.925781 154.242188 L 157.234375 210.9375 "/>
<path style="fill:none;stroke-width:0.3985;stroke-linecap:butt;stroke-linejoin:miter;stroke:rgb(0%,0%,0%);stroke-opacity:1;stroke-miterlimit:10;" d="M 0.001375 -0.0005 L 28.345125 -0.0005 L 28.345125 28.347156 L 0.001375 28.347156 L 0.001375 -0.0005 " transform="matrix(1,0,0,-1,157.233,210.937)"/>
<path style=" stroke:none;fill-rule:nonzero;fill:rgb(79.998779%,79.998779%,100%);fill-opacity:1;" d="M 185.578125 210.9375 L 213.925781 210.9375 L 213.925781 182.589844 L 185.578125 182.589844 L 185.578125 210.9375 "/>
<path style="fill:none;stroke-width:0.3985;stroke-linecap:butt;stroke-linejoin:miter;stroke:rgb(0%,0%,0%);stroke-opacity:1;stroke-miterlimit:10;" d="M 28.345125 -0.0005 L 56.692781 -0.0005 L 56.692781 28.347156 L 28.345125 28.347156 L 0.001375 -0.0005 " transform="matrix(1,0,0,-1,157.233,210.937)"/>
<path style=" stroke:none;fill-rule:nonzero;fill:rgb(89.99939%,89.99939%,89.99939%);fill-opacity:1;" d="M 213.925781 210.9375 L 242.273438 210.9375 L 213.925781 154.242188 L 213.925781 210.9375 "/>
<path style="fill:none;stroke-width:0.3985;stroke-linecap:butt;stroke-linejoin:miter;stroke:rgb(0%,0%,0%);stroke-opacity:1;stroke-miterlimit:10;" d="M 56.692781 -0.0005 L 85.040437 -0.0005 L 85.040437 28.347156 L 56.692781 28.347156 L 56.692781 -0.0005 " transform="matrix(1,0,0,-1,157.233,210.937)"/>
<path style="fill:none;stroke-width:0.3985;stroke-linecap:butt;stroke-linejoin:miter;stroke:rgb(0%,0%,0%);stroke-opacity:1;stroke-miterlimit:10;" d="M 42.520906 42.519031 C 34.692781 50.347156 22.005281 50.347156 14.177156 42.519031 C 6.349031 34.694813 6.349031 22.003406 12.767 15.585438 " transform="matrix(1,0,0,-1,157.233,210.937)"/>
<path style=" stroke:none;fill-rule:nonzero;fill:rgb(0%,0%,0%);fill-opacity:1;" d="M 171.410156 196.757813 L 170.285156 193.378906 L 170 195.351563 L 168.027344 195.632813 "/>
<path style="fill:none;stroke-width:0.3985;stroke-linecap:butt;stroke-linejoin:miter;stroke:rgb(0%,0%,0%);stroke-opacity:1;stroke-miterlimit:10;" d="M 66.134187 37.784656 C 70.794344 40.120594 76.466219 38.233875 78.79825 33.573719 C 80.309969 30.558094 80.095125 26.964344 78.239656 24.151844 C 77.325594 22.765125 76.063875 21.644031 76.368562 21.800281 " transform="matrix(1,0,0,-1,157.233,210.937)"/>
<path style=" stroke:none;fill-rule:nonzero;fill:rgb(0%,0%,0%);fill-opacity:1;" d="M 231.8125 190.03125 L 235.390625 190.03125 L 233.601563 189.136719 L 233.960938 187.171875 "/>
<path style="fill:none;stroke-width:0.19925;stroke-linecap:butt;stroke-linejoin:miter;stroke:rgb(0%,0%,0%);stroke-opacity:0.5;stroke-miterlimit:10;" d="M -28.346281 -28.348156 L 113.388094 -28.348156 M -28.346281 -0.0005 L 113.388094 -0.0005 M -28.346281 28.347156 L 113.388094 28.347156 M -28.346281 56.694813 L 113.388094 56.694813 M -28.346281 85.03075 L 113.388094 85.03075 M -28.346281 -28.348156 L -28.346281 85.038563 M 0.001375 -28.348156 L 0.001375 85.038563 M 28.345125 -28.348156 L 28.345125 85.038563 M 56.692781 -28.348156 L 56.692781 85.038563 M 85.040437 -28.348156 L 85.040437 85.038563 M 113.376375 -28.348156 L 113.376375 85.038563 " transform="matrix(1,0,0,-1,157.233,210.937)"/>
</g>
</svg>
