<?xml version="1.0" encoding="UTF-8"?>
<svg xmlns="http://www.w3.org/2000/svg" xmlns:xlink="http://www.w3.org/1999/xlink" width="180" height="154" viewBox="0 0 180 154">
<defs>
<g>
<g id="glyph-0-0">
<path d="M 1.109375 -4.484375 C 1.21875 -4.453125 1.53125 -4.359375 1.875 -4.359375 C 2.875 -4.359375 3.46875 -5.0625 3.46875 -5.1875 C 3.46875 -5.28125 3.421875 -5.296875 3.375 -5.296875 C 3.359375 -5.296875 3.34375 -5.296875 3.28125 -5.265625 C 2.96875 -5.140625 2.59375 -5.046875 2.171875 -5.046875 C 1.703125 -5.046875 1.3125 -5.15625 1.0625 -5.265625 C 0.984375 -5.296875 0.96875 -5.296875 0.953125 -5.296875 C 0.859375 -5.296875 0.859375 -5.21875 0.859375 -5.0625 L 0.859375 -2.734375 C 0.859375 -2.59375 0.859375 -2.5 0.984375 -2.5 C 1.046875 -2.5 1.0625 -2.53125 1.109375 -2.59375 C 1.203125 -2.703125 1.5 -3.109375 2.1875 -3.109375 C 2.625 -3.109375 2.84375 -2.75 2.921875 -2.59375 C 3.046875 -2.3125 3.0625 -1.9375 3.0625 -1.640625 C 3.0625 -1.34375 3.0625 -0.90625 2.84375 -0.5625 C 2.6875 -0.3125 2.359375 -0.078125 1.9375 -0.078125 C 1.421875 -0.078125 0.921875 -0.390625 0.734375 -0.921875 C 0.75 -0.90625 0.8125 -0.90625 0.8125 -0.90625 C 1.03125 -0.90625 1.21875 -1.046875 1.21875 -1.296875 C 1.21875 -1.59375 0.984375 -1.703125 0.828125 -1.703125 C 0.671875 -1.703125 0.421875 -1.625 0.421875 -1.28125 C 0.421875 -0.5625 1.046875 0.171875 1.953125 0.171875 C 2.953125 0.171875 3.796875 -0.609375 3.796875 -1.59375 C 3.796875 -2.515625 3.125 -3.34375 2.1875 -3.34375 C 1.796875 -3.34375 1.421875 -3.21875 1.109375 -2.9375 Z M 1.109375 -4.484375 "/>
</g>
<g id="glyph-0-1">
<path d="M 3.890625 -2.546875 C 3.890625 -3.390625 3.8125 -3.90625 3.546875 -4.421875 C 3.203125 -5.125 2.546875 -5.296875 2.109375 -5.296875 C 1.109375 -5.296875 0.734375 -4.546875 0.625 -4.328125 C 0.34375 -3.75 0.328125 -2.953125 0.328125 -2.546875 C 0.328125 -2.015625 0.34375 -1.21875 0.734375 -0.578125 C 1.09375 0.015625 1.6875 0.171875 2.109375 0.171875 C 2.5 0.171875 3.171875 0.046875 3.578125 -0.734375 C 3.875 -1.3125 3.890625 -2.03125 3.890625 -2.546875 Z M 2.109375 -0.0625 C 1.84375 -0.0625 1.296875 -0.1875 1.125 -1.015625 C 1.03125 -1.46875 1.03125 -2.21875 1.03125 -2.640625 C 1.03125 -3.1875 1.03125 -3.75 1.125 -4.1875 C 1.296875 -5 1.90625 -5.078125 2.109375 -5.078125 C 2.375 -5.078125 2.9375 -4.9375 3.09375 -4.21875 C 3.1875 -3.78125 3.1875 -3.171875 3.1875 -2.640625 C 3.1875 -2.171875 3.1875 -1.453125 3.09375 -1 C 2.921875 -0.171875 2.375 -0.0625 2.109375 -0.0625 Z M 2.109375 -0.0625 "/>
</g>
<g id="glyph-0-2">
<path d="M 2.5 -5.078125 C 2.5 -5.296875 2.484375 -5.296875 2.265625 -5.296875 C 1.9375 -4.984375 1.515625 -4.796875 0.765625 -4.796875 L 0.765625 -4.53125 C 0.984375 -4.53125 1.40625 -4.53125 1.875 -4.734375 L 1.875 -0.65625 C 1.875 -0.359375 1.84375 -0.265625 1.09375 -0.265625 L 0.8125 -0.265625 L 0.8125 0 C 1.140625 -0.03125 1.828125 -0.03125 2.1875 -0.03125 C 2.546875 -0.03125 3.234375 -0.03125 3.5625 0 L 3.5625 -0.265625 L 3.28125 -0.265625 C 2.53125 -0.265625 2.5 -0.359375 2.5 -0.65625 Z M 2.5 -5.078125 "/>
</g>
<g id="glyph-0-3">
<path d="M 2.25 -1.625 C 2.375 -1.75 2.703125 -2.015625 2.84375 -2.125 C 3.328125 -2.578125 3.796875 -3.015625 3.796875 -3.734375 C 3.796875 -4.6875 3 -5.296875 2.015625 -5.296875 C 1.046875 -5.296875 0.421875 -4.578125 0.421875 -3.859375 C 0.421875 -3.46875 0.734375 -3.421875 0.84375 -3.421875 C 1.015625 -3.421875 1.265625 -3.53125 1.265625 -3.84375 C 1.265625 -4.25 0.859375 -4.25 0.765625 -4.25 C 1 -4.84375 1.53125 -5.03125 1.921875 -5.03125 C 2.65625 -5.03125 3.046875 -4.40625 3.046875 -3.734375 C 3.046875 -2.90625 2.46875 -2.296875 1.515625 -1.34375 L 0.515625 -0.296875 C 0.421875 -0.21875 0.421875 -0.203125 0.421875 0 L 3.5625 0 L 3.796875 -1.421875 L 3.546875 -1.421875 C 3.53125 -1.265625 3.46875 -0.875 3.375 -0.71875 C 3.328125 -0.65625 2.71875 -0.65625 2.59375 -0.65625 L 1.171875 -0.65625 Z M 2.25 -1.625 "/>
</g>
<g id="glyph-1-0">
<path d="M 4.046875 0.421875 C 4.03125 0.390625 4.03125 0.375 3.78125 0.3125 C 2.09375 -0.15625 0.875 -1.625 0.109375 -2.953125 C -0.75 -4.453125 -1.3125 -6.140625 -0.84375 -7.828125 C -0.796875 -8 -0.8125 -8.015625 -0.828125 -8.046875 C -0.859375 -8.109375 -0.90625 -8.125 -0.953125 -8.09375 C -1.0625 -8.03125 -1.484375 -7 -1.375 -5.609375 C -1.265625 -4.40625 -0.796875 -3.375 -0.390625 -2.671875 C 0 -1.984375 0.703125 -1 1.734375 -0.28125 C 2.875 0.46875 3.921875 0.625 4.03125 0.5625 C 4.078125 0.53125 4.09375 0.484375 4.046875 0.421875 Z M 4.046875 0.421875 "/>
</g>
<g id="glyph-1-1">
<path d="M 0.71875 -1.296875 L 1.125 -2.734375 C 1.78125 -4.6875 2.03125 -5.4375 1.53125 -6.3125 C 0.953125 -7.296875 -0.21875 -7.546875 -1.265625 -6.9375 C -2.25 -6.375 -2.421875 -5.203125 -1.96875 -4.4375 C -1.703125 -3.953125 -1.28125 -4.203125 -1.25 -4.21875 C -1.09375 -4.3125 -0.84375 -4.578125 -1.0625 -4.953125 C -1.1875 -5.171875 -1.484375 -5.296875 -1.78125 -5.125 C -1.84375 -5.078125 -1.859375 -5.078125 -1.890625 -5.046875 C -2.03125 -5.734375 -1.71875 -6.3125 -1.21875 -6.609375 C -0.4375 -7.0625 0.328125 -6.5625 0.734375 -5.859375 C 1.125 -5.171875 1.109375 -4.25 0.921875 -3.4375 L 0.34375 -0.640625 C 0.3125 -0.484375 0.328125 -0.453125 0.4375 -0.25 L 3.640625 -2.109375 L 3.015625 -3.734375 L 2.8125 -3.625 C 2.890625 -3.34375 3.0625 -2.921875 3.046875 -2.734375 C 3.03125 -2.625 2.46875 -2.296875 2.28125 -2.1875 Z M 0.71875 -1.296875 "/>
</g>
<g id="glyph-1-2">
<path d="M 2.375 -5.0625 C 1.984375 -5.75 1.53125 -6.40625 0.875 -6.875 C 0 -7.484375 -0.796875 -7.203125 -1.140625 -7 C -1.671875 -6.703125 -2.171875 -6.109375 -2.0625 -5.09375 C -2 -4.34375 -1.640625 -3.65625 -1.25 -2.96875 C -0.875 -2.3125 -0.40625 -1.5625 0.34375 -1.09375 C 1.09375 -0.625 1.84375 -0.8125 2.265625 -1.0625 C 2.71875 -1.328125 3.28125 -1.875 3.1875 -2.921875 C 3.109375 -3.671875 2.765625 -4.375 2.375 -5.0625 Z M 2.15625 -1.25 C 1.8125 -1.046875 1.171875 -0.96875 0.5625 -1.71875 C 0.171875 -2.171875 -0.296875 -2.96875 -0.59375 -3.484375 C -0.90625 -4.03125 -1.234375 -4.59375 -1.4375 -5.109375 C -1.875 -6.234375 -1.265625 -6.6875 -1.046875 -6.8125 C -0.765625 -6.96875 -0.109375 -7.140625 0.546875 -6.375 C 0.921875 -5.953125 1.296875 -5.296875 1.609375 -4.765625 C 1.984375 -4.109375 2.328125 -3.53125 2.546875 -2.90625 C 2.890625 -2 2.546875 -1.46875 2.15625 -1.25 Z M 2.15625 -1.25 "/>
</g>
<g id="glyph-1-3">
<path d="M -0.640625 -6.984375 C -0.765625 -7.203125 -0.765625 -7.21875 -0.96875 -7.109375 C -1.203125 -6.25 -1.953125 -5.8125 -2.234375 -5.65625 L -2.078125 -5.375 C -1.890625 -5.46875 -1.390625 -5.765625 -1.078125 -6.25 L 1.5 -1.765625 C 1.6875 -1.453125 1.71875 -1.34375 0.9375 -0.90625 L 0.671875 -0.75 L 0.828125 -0.484375 C 1.109375 -0.6875 1.859375 -1.109375 2.203125 -1.3125 C 2.546875 -1.515625 3.296875 -1.953125 3.609375 -2.09375 L 3.453125 -2.359375 L 3.1875 -2.203125 C 2.40625 -1.75 2.34375 -1.828125 2.15625 -2.140625 Z M -0.640625 -6.984375 "/>
</g>
<g id="glyph-1-4">
<path d="M 0.75 -4.5 C 1.3125 -5.140625 1.46875 -6.015625 1.078125 -6.703125 C 0.671875 -7.40625 -0.359375 -7.453125 -1.1875 -6.984375 C -2.046875 -6.484375 -2.421875 -5.578125 -2.046875 -4.921875 C -1.875 -4.640625 -1.59375 -4.578125 -1.328125 -4.734375 C -1.078125 -4.875 -1.015625 -5.171875 -1.171875 -5.4375 C -1.40625 -5.859375 -1.8125 -5.625 -1.921875 -5.546875 C -1.921875 -6.125 -1.421875 -6.5625 -1.109375 -6.734375 C -0.734375 -6.953125 -0.15625 -7.03125 0.28125 -6.265625 C 0.34375 -6.15625 0.609375 -5.640625 0.609375 -5.125 C 0.59375 -4.578125 0.3125 -4.375 0.09375 -4.25 C 0.046875 -4.1875 -0.15625 -4.0625 -0.234375 -4.015625 C -0.28125 -3.96875 -0.328125 -3.921875 -0.28125 -3.84375 C -0.21875 -3.75 -0.171875 -3.78125 -0.015625 -3.859375 L 0.359375 -4.078125 C 1.0625 -4.484375 1.71875 -4.09375 2.21875 -3.234375 C 2.890625 -2.0625 2.4375 -1.46875 2.046875 -1.25 C 1.671875 -1.03125 0.953125 -0.8125 0.34375 -1.140625 C 0.6875 -1.265625 0.84375 -1.625 0.65625 -1.9375 C 0.46875 -2.25 0.140625 -2.3125 -0.09375 -2.171875 C -0.3125 -2.046875 -0.53125 -1.765625 -0.3125 -1.375 C 0.140625 -0.59375 1.265625 -0.484375 2.21875 -1.03125 C 3.28125 -1.640625 3.609375 -2.875 3.109375 -3.75 C 2.703125 -4.453125 1.75 -4.828125 0.75 -4.5 Z M 0.75 -4.5 "/>
</g>
<g id="glyph-1-5">
<path d="M -0.484375 -3.484375 L -0.609375 -3.703125 C -1.875 -5.875 -0.984375 -6.8125 -0.53125 -7.0625 C -0.328125 -7.1875 0.0625 -7.34375 0.421875 -7.15625 C 0.296875 -7.078125 -0.046875 -6.890625 0.171875 -6.5 C 0.328125 -6.234375 0.609375 -6.203125 0.796875 -6.3125 C 0.9375 -6.390625 1.15625 -6.640625 0.953125 -6.96875 C 0.65625 -7.484375 0.046875 -7.6875 -0.671875 -7.28125 C -1.78125 -6.640625 -2.3125 -4.859375 -1.21875 -2.953125 C 0.125 -0.640625 1.46875 -0.609375 2.28125 -1.0625 C 3.234375 -1.625 3.59375 -2.90625 2.9375 -4.046875 C 2.3125 -5.140625 1.0625 -5.53125 0.09375 -4.96875 C -0.484375 -4.640625 -0.5625 -4.015625 -0.484375 -3.484375 Z M 2.140625 -1.296875 C 1.59375 -0.984375 1.03125 -1.359375 0.90625 -1.46875 C 0.515625 -1.78125 0.125 -2.46875 0.03125 -2.625 C -0.359375 -3.296875 -0.578125 -4.3125 0.1875 -4.765625 C 0.34375 -4.84375 0.734375 -5.078125 1.3125 -4.703125 C 1.65625 -4.46875 1.90625 -4.015625 2.15625 -3.59375 C 2.390625 -3.1875 2.640625 -2.75 2.671875 -2.359375 C 2.71875 -1.6875 2.34375 -1.421875 2.140625 -1.296875 Z M 2.140625 -1.296875 "/>
</g>
<g id="glyph-1-6">
<path d="M 1.234375 -3.609375 C 0.859375 -4.265625 0.15625 -5.265625 -0.875 -5.96875 C -2 -6.71875 -3.078125 -6.875 -3.15625 -6.828125 C -3.203125 -6.796875 -3.234375 -6.71875 -3.203125 -6.671875 C -3.1875 -6.640625 -3.171875 -6.625 -2.90625 -6.5625 C -1.578125 -6.203125 -0.296875 -5.125 0.734375 -3.328125 C 1.59375 -1.828125 2.15625 -0.125 1.71875 1.5625 C 1.65625 1.75 1.65625 1.765625 1.671875 1.796875 C 1.703125 1.84375 1.78125 1.859375 1.828125 1.828125 C 1.90625 1.78125 2.359375 0.71875 2.21875 -0.65625 C 2.125 -1.859375 1.65625 -2.875 1.234375 -3.609375 Z M 1.234375 -3.609375 "/>
</g>
<g id="glyph-1-7">
<path d="M 2.875 -3.96875 C 2.28125 -5 1.078125 -5.453125 0.140625 -4.921875 C -0.265625 -4.6875 -0.5625 -4.328125 -0.6875 -3.84375 L -1.671875 -5.53125 C -1.46875 -5.578125 -1.15625 -5.6875 -0.875 -5.84375 C 0.1875 -6.46875 0.34375 -7.59375 0.28125 -7.703125 C 0.25 -7.75 0.203125 -7.78125 0.140625 -7.75 C 0.140625 -7.75 0.109375 -7.734375 0.09375 -7.671875 C -0.046875 -7.5 -0.375 -7.078125 -0.953125 -6.75 C -1.28125 -6.546875 -1.71875 -6.375 -2.234375 -6.3125 C -2.328125 -6.3125 -2.34375 -6.296875 -2.359375 -6.296875 C -2.453125 -6.234375 -2.40625 -6.171875 -2.328125 -6.03125 L -0.859375 -3.484375 C -0.765625 -3.328125 -0.734375 -3.265625 -0.609375 -3.34375 C -0.53125 -3.375 -0.53125 -3.40625 -0.515625 -3.46875 C -0.5 -3.671875 -0.46875 -4.3125 0.234375 -4.71875 C 0.6875 -4.984375 1.125 -4.71875 1.296875 -4.578125 C 1.609375 -4.34375 1.828125 -4.03125 2.078125 -3.59375 C 2.25 -3.28125 2.546875 -2.765625 2.546875 -2.28125 C 2.53125 -1.828125 2.34375 -1.421875 1.9375 -1.1875 C 1.328125 -0.828125 0.5625 -1.015625 0.125 -1.421875 C 0.15625 -1.4375 0.171875 -1.4375 0.28125 -1.5 C 0.5625 -1.65625 0.578125 -1.96875 0.46875 -2.171875 C 0.34375 -2.390625 0.078125 -2.515625 -0.203125 -2.359375 C -0.328125 -2.28125 -0.59375 -2.03125 -0.359375 -1.640625 C 0.0625 -0.90625 1.140625 -0.40625 2.09375 -0.96875 C 3.09375 -1.546875 3.515625 -2.875 2.875 -3.96875 Z M 2.875 -3.96875 "/>
</g>
<g id="glyph-1-8">
<path d="M 1.734375 -2.890625 L 2.15625 -2.140625 C 2.34375 -1.828125 2.359375 -1.71875 1.71875 -1.359375 L 1.546875 -1.25 L 1.703125 -0.984375 C 2.046875 -1.21875 2.484375 -1.484375 2.859375 -1.6875 C 3.21875 -1.90625 3.671875 -2.15625 4.046875 -2.34375 L 3.890625 -2.609375 L 3.703125 -2.5 C 3.0625 -2.125 3 -2.21875 2.8125 -2.53125 L 2.390625 -3.28125 L 3.25 -3.765625 L 3.09375 -4.03125 L 2.234375 -3.546875 L -0.03125 -7.46875 C -0.140625 -7.65625 -0.171875 -7.703125 -0.3125 -7.609375 C -0.390625 -7.578125 -0.40625 -7.5625 -0.421875 -7.40625 L -0.71875 -1.828125 L -0.5625 -1.5625 Z M 1.609375 -3.1875 L -0.484375 -1.96875 L -0.25 -6.40625 Z M 1.609375 -3.1875 "/>
</g>
<g id="glyph-1-9">
<path d="M -0.875 -4.765625 C -1.40625 -4.796875 -1.625 -5.0625 -1.703125 -5.203125 C -2.015625 -5.734375 -1.640625 -6.421875 -1.03125 -6.78125 C -0.40625 -7.140625 0.390625 -7.015625 0.75 -6.390625 C 1.046875 -5.890625 0.9375 -5.296875 0.59375 -4.703125 Z M 0.875 -4.671875 C 1.296875 -5.359375 1.453125 -6.03125 1.125 -6.609375 C 0.671875 -7.40625 -0.359375 -7.453125 -1.140625 -7 C -2.015625 -6.5 -2.359375 -5.453125 -1.890625 -4.640625 C -1.796875 -4.5 -1.5625 -4.125 -0.96875 -3.921875 C -0.8125 -3.890625 -0.359375 -3.859375 -0.0625 -3.828125 C -0.40625 -3.28125 -0.890625 -2.390625 -0.390625 -1.515625 C 0.140625 -0.609375 1.359375 -0.53125 2.265625 -1.0625 C 3.234375 -1.625 3.65625 -2.8125 3.125 -3.734375 C 2.9375 -4.046875 2.625 -4.390625 2.0625 -4.546875 C 1.8125 -4.625 1.625 -4.640625 0.875 -4.671875 Z M 0.203125 -3.8125 L 1.671875 -3.734375 C 2 -3.71875 2.5625 -3.703125 2.859375 -3.171875 C 3.234375 -2.53125 2.84375 -1.703125 2.140625 -1.296875 C 1.390625 -0.875 0.46875 -1.046875 0.046875 -1.765625 C -0.234375 -2.265625 -0.296875 -2.984375 0.203125 -3.8125 Z M 0.203125 -3.8125 "/>
</g>
<g id="glyph-1-10">
<path d="M 1.078125 -7.640625 C 1.09375 -7.78125 1.09375 -7.796875 0.984375 -7.984375 L -1.125 -6.765625 C -2.15625 -6.171875 -2.25 -6.265625 -2.375 -6.40625 L -2.59375 -6.28125 L -1.859375 -4.34375 L -1.640625 -4.46875 C -1.6875 -4.609375 -1.9375 -5.203125 -1.875 -5.375 C -1.859375 -5.46875 -1.171875 -5.859375 -1.0625 -5.921875 L 0.71875 -6.953125 C 0.703125 -6.765625 0.578125 -5.421875 0.546875 -5.03125 C 0.4375 -3.421875 0.84375 -2.03125 1.359375 -1.15625 C 1.40625 -1.078125 1.625 -0.6875 2.03125 -0.921875 C 2.421875 -1.15625 2.203125 -1.546875 2.15625 -1.625 L 1.890625 -2.078125 C 1.625 -2.546875 1.375 -3.03125 1.171875 -3.53125 C 1.109375 -3.765625 0.78125 -4.5625 0.875 -5.3125 Z M 1.078125 -7.640625 "/>
</g>
<g id="glyph-2-0">
<path d="M 1.765625 -1.03125 C 1.4375 -1.59375 1.015625 -1.8125 0.671875 -1.625 C 0.390625 -1.453125 0.34375 -1.140625 0.484375 -0.890625 C 0.625 -0.671875 0.921875 -0.53125 1.203125 -0.703125 C 1.296875 -0.75 1.40625 -0.875 1.4375 -0.984375 C 1.453125 -1.03125 1.46875 -1.03125 1.46875 -1.03125 C 1.484375 -1.046875 1.484375 -1.046875 1.5625 -0.921875 C 1.921875 -0.265625 1.921875 0.421875 1.796875 0.875 C 1.75 1.015625 1.765625 1.03125 1.78125 1.046875 C 1.8125 1.125 1.875 1.140625 1.90625 1.109375 C 2.015625 1.0625 2.34375 -0.015625 1.765625 -1.03125 Z M 1.765625 -1.03125 "/>
</g>
<g id="glyph-2-1">
<path d="M 1.390625 -1.40625 C 1.25 -1.65625 0.921875 -1.765625 0.671875 -1.625 C 0.421875 -1.46875 0.34375 -1.140625 0.484375 -0.890625 C 0.640625 -0.640625 0.953125 -0.546875 1.203125 -0.703125 C 1.453125 -0.84375 1.546875 -1.15625 1.390625 -1.40625 Z M 1.390625 -1.40625 "/>
</g>
<g id="glyph-3-0">
<path d="M 3.328125 -3.015625 C 3.390625 -3.265625 3.625 -4.1875 4.3125 -4.1875 C 4.359375 -4.1875 4.609375 -4.1875 4.8125 -4.0625 C 4.53125 -4 4.34375 -3.765625 4.34375 -3.515625 C 4.34375 -3.359375 4.453125 -3.171875 4.71875 -3.171875 C 4.9375 -3.171875 5.25 -3.34375 5.25 -3.75 C 5.25 -4.265625 4.671875 -4.40625 4.328125 -4.40625 C 3.75 -4.40625 3.40625 -3.875 3.28125 -3.65625 C 3.03125 -4.3125 2.5 -4.40625 2.203125 -4.40625 C 1.171875 -4.40625 0.59375 -3.125 0.59375 -2.875 C 0.59375 -2.765625 0.703125 -2.765625 0.71875 -2.765625 C 0.796875 -2.765625 0.828125 -2.796875 0.84375 -2.875 C 1.1875 -3.9375 1.84375 -4.1875 2.1875 -4.1875 C 2.375 -4.1875 2.71875 -4.09375 2.71875 -3.515625 C 2.71875 -3.203125 2.546875 -2.546875 2.1875 -1.140625 C 2.03125 -0.53125 1.671875 -0.109375 1.234375 -0.109375 C 1.171875 -0.109375 0.953125 -0.109375 0.734375 -0.234375 C 0.984375 -0.296875 1.203125 -0.5 1.203125 -0.78125 C 1.203125 -1.046875 0.984375 -1.125 0.84375 -1.125 C 0.53125 -1.125 0.296875 -0.875 0.296875 -0.546875 C 0.296875 -0.09375 0.78125 0.109375 1.21875 0.109375 C 1.890625 0.109375 2.25 -0.59375 2.265625 -0.640625 C 2.390625 -0.28125 2.75 0.109375 3.34375 0.109375 C 4.375 0.109375 4.9375 -1.171875 4.9375 -1.421875 C 4.9375 -1.53125 4.859375 -1.53125 4.828125 -1.53125 C 4.734375 -1.53125 4.71875 -1.484375 4.6875 -1.421875 C 4.359375 -0.34375 3.6875 -0.109375 3.375 -0.109375 C 2.984375 -0.109375 2.828125 -0.421875 2.828125 -0.765625 C 2.828125 -0.984375 2.875 -1.203125 2.984375 -1.640625 Z M 3.328125 -3.015625 "/>
</g>
<g id="glyph-3-1">
<path d="M 4.84375 -3.796875 C 4.890625 -3.9375 4.890625 -3.953125 4.890625 -4.03125 C 4.890625 -4.203125 4.75 -4.296875 4.59375 -4.296875 C 4.5 -4.296875 4.34375 -4.234375 4.25 -4.09375 C 4.234375 -4.03125 4.140625 -3.734375 4.109375 -3.546875 C 4.03125 -3.296875 3.96875 -3.015625 3.90625 -2.75 L 3.453125 -0.953125 C 3.421875 -0.8125 2.984375 -0.109375 2.328125 -0.109375 C 1.828125 -0.109375 1.71875 -0.546875 1.71875 -0.921875 C 1.71875 -1.375 1.890625 -2 2.21875 -2.875 C 2.375 -3.28125 2.421875 -3.390625 2.421875 -3.59375 C 2.421875 -4.03125 2.109375 -4.40625 1.609375 -4.40625 C 0.65625 -4.40625 0.296875 -2.953125 0.296875 -2.875 C 0.296875 -2.765625 0.390625 -2.765625 0.40625 -2.765625 C 0.515625 -2.765625 0.515625 -2.796875 0.5625 -2.953125 C 0.84375 -3.890625 1.234375 -4.1875 1.578125 -4.1875 C 1.65625 -4.1875 1.828125 -4.1875 1.828125 -3.875 C 1.828125 -3.625 1.71875 -3.359375 1.65625 -3.171875 C 1.25 -2.109375 1.078125 -1.546875 1.078125 -1.078125 C 1.078125 -0.1875 1.703125 0.109375 2.296875 0.109375 C 2.6875 0.109375 3.015625 -0.0625 3.296875 -0.34375 C 3.171875 0.171875 3.046875 0.671875 2.65625 1.203125 C 2.390625 1.53125 2.015625 1.828125 1.5625 1.828125 C 1.421875 1.828125 0.96875 1.796875 0.796875 1.40625 C 0.953125 1.40625 1.09375 1.40625 1.21875 1.28125 C 1.328125 1.203125 1.421875 1.0625 1.421875 0.875 C 1.421875 0.5625 1.15625 0.53125 1.0625 0.53125 C 0.828125 0.53125 0.5 0.6875 0.5 1.171875 C 0.5 1.671875 0.9375 2.046875 1.5625 2.046875 C 2.578125 2.046875 3.609375 1.140625 3.890625 0.015625 Z M 4.84375 -3.796875 "/>
</g>
<g id="glyph-4-0">
<path d="M 3.296875 2.390625 C 3.296875 2.359375 3.296875 2.34375 3.125 2.171875 C 1.890625 0.921875 1.5625 -0.96875 1.5625 -2.5 C 1.5625 -4.234375 1.9375 -5.96875 3.171875 -7.203125 C 3.296875 -7.328125 3.296875 -7.34375 3.296875 -7.375 C 3.296875 -7.453125 3.265625 -7.484375 3.203125 -7.484375 C 3.09375 -7.484375 2.203125 -6.796875 1.609375 -5.53125 C 1.109375 -4.4375 0.984375 -3.328125 0.984375 -2.5 C 0.984375 -1.71875 1.09375 -0.515625 1.640625 0.625 C 2.25 1.84375 3.09375 2.5 3.203125 2.5 C 3.265625 2.5 3.296875 2.46875 3.296875 2.390625 Z M 3.296875 2.390625 "/>
</g>
<g id="glyph-4-1">
<path d="M 8.109375 0 L 8.109375 -0.3125 C 7.59375 -0.3125 7.34375 -0.3125 7.328125 -0.609375 L 7.328125 -2.515625 C 7.328125 -3.375 7.328125 -3.671875 7.015625 -4.03125 C 6.875 -4.203125 6.546875 -4.40625 5.96875 -4.40625 C 5.140625 -4.40625 4.6875 -3.8125 4.53125 -3.421875 C 4.390625 -4.296875 3.65625 -4.40625 3.203125 -4.40625 C 2.46875 -4.40625 2 -3.984375 1.71875 -3.359375 L 1.71875 -4.40625 L 0.3125 -4.296875 L 0.3125 -3.984375 C 1.015625 -3.984375 1.09375 -3.921875 1.09375 -3.421875 L 1.09375 -0.75 C 1.09375 -0.3125 0.984375 -0.3125 0.3125 -0.3125 L 0.3125 0 L 1.453125 -0.03125 L 2.5625 0 L 2.5625 -0.3125 C 1.890625 -0.3125 1.78125 -0.3125 1.78125 -0.75 L 1.78125 -2.59375 C 1.78125 -3.625 2.5 -4.1875 3.125 -4.1875 C 3.765625 -4.1875 3.875 -3.65625 3.875 -3.078125 L 3.875 -0.75 C 3.875 -0.3125 3.765625 -0.3125 3.09375 -0.3125 L 3.09375 0 L 4.21875 -0.03125 L 5.328125 0 L 5.328125 -0.3125 C 4.671875 -0.3125 4.5625 -0.3125 4.5625 -0.75 L 4.5625 -2.59375 C 4.5625 -3.625 5.265625 -4.1875 5.90625 -4.1875 C 6.53125 -4.1875 6.640625 -3.65625 6.640625 -3.078125 L 6.640625 -0.75 C 6.640625 -0.3125 6.53125 -0.3125 5.859375 -0.3125 L 5.859375 0 L 6.984375 -0.03125 Z M 8.109375 0 "/>
</g>
<g id="glyph-4-2">
<path d="M 2.46875 0 L 2.46875 -0.3125 C 1.796875 -0.3125 1.765625 -0.359375 1.765625 -0.75 L 1.765625 -4.40625 L 0.375 -4.296875 L 0.375 -3.984375 C 1.015625 -3.984375 1.109375 -3.921875 1.109375 -3.4375 L 1.109375 -0.75 C 1.109375 -0.3125 1 -0.3125 0.328125 -0.3125 L 0.328125 0 L 1.421875 -0.03125 C 1.78125 -0.03125 2.125 -0.015625 2.46875 0 Z M 1.90625 -6.015625 C 1.90625 -6.296875 1.6875 -6.546875 1.390625 -6.546875 C 1.046875 -6.546875 0.84375 -6.265625 0.84375 -6.015625 C 0.84375 -5.75 1.078125 -5.5 1.375 -5.5 C 1.71875 -5.5 1.90625 -5.765625 1.90625 -6.015625 Z M 1.90625 -6.015625 "/>
</g>
<g id="glyph-4-3">
<path d="M 2.546875 0 L 2.546875 -0.3125 C 1.875 -0.3125 1.765625 -0.3125 1.765625 -0.75 L 1.765625 -6.921875 L 0.328125 -6.8125 L 0.328125 -6.5 C 1.03125 -6.5 1.109375 -6.4375 1.109375 -5.9375 L 1.109375 -0.75 C 1.109375 -0.3125 1 -0.3125 0.328125 -0.3125 L 0.328125 0 L 1.4375 -0.03125 Z M 2.546875 0 "/>
</g>
<g id="glyph-4-4">
<path d="M 4.140625 -1.1875 C 4.140625 -1.28125 4.0625 -1.3125 4 -1.3125 C 3.921875 -1.3125 3.890625 -1.25 3.875 -1.171875 C 3.53125 -0.140625 2.625 -0.140625 2.53125 -0.140625 C 2.03125 -0.140625 1.640625 -0.4375 1.40625 -0.8125 C 1.109375 -1.28125 1.109375 -1.9375 1.109375 -2.296875 L 3.890625 -2.296875 C 4.109375 -2.296875 4.140625 -2.296875 4.140625 -2.515625 C 4.140625 -3.5 3.59375 -4.46875 2.359375 -4.46875 C 1.203125 -4.46875 0.28125 -3.4375 0.28125 -2.1875 C 0.28125 -0.859375 1.328125 0.109375 2.46875 0.109375 C 3.6875 0.109375 4.140625 -1 4.140625 -1.1875 Z M 3.484375 -2.515625 L 1.109375 -2.515625 C 1.171875 -4 2.015625 -4.25 2.359375 -4.25 C 3.375 -4.25 3.484375 -2.90625 3.484375 -2.515625 Z M 3.484375 -2.515625 "/>
</g>
<g id="glyph-4-5">
<path d="M 3.59375 -1.28125 C 3.59375 -1.796875 3.296875 -2.109375 3.171875 -2.21875 C 2.84375 -2.546875 2.453125 -2.625 2.03125 -2.703125 C 1.46875 -2.8125 0.8125 -2.9375 0.8125 -3.515625 C 0.8125 -3.875 1.0625 -4.28125 1.921875 -4.28125 C 3.015625 -4.28125 3.078125 -3.375 3.09375 -3.078125 C 3.09375 -2.984375 3.203125 -2.984375 3.203125 -2.984375 C 3.34375 -2.984375 3.34375 -3.03125 3.34375 -3.21875 L 3.34375 -4.234375 C 3.34375 -4.390625 3.34375 -4.46875 3.234375 -4.46875 C 3.1875 -4.46875 3.15625 -4.46875 3.03125 -4.34375 C 3 -4.3125 2.90625 -4.21875 2.859375 -4.1875 C 2.484375 -4.46875 2.078125 -4.46875 1.921875 -4.46875 C 0.703125 -4.46875 0.328125 -3.796875 0.328125 -3.234375 C 0.328125 -2.890625 0.484375 -2.609375 0.75 -2.390625 C 1.078125 -2.140625 1.359375 -2.078125 2.078125 -1.9375 C 2.296875 -1.890625 3.109375 -1.734375 3.109375 -1.015625 C 3.109375 -0.515625 2.765625 -0.109375 1.984375 -0.109375 C 1.140625 -0.109375 0.78125 -0.671875 0.59375 -1.53125 C 0.5625 -1.65625 0.5625 -1.6875 0.453125 -1.6875 C 0.328125 -1.6875 0.328125 -1.625 0.328125 -1.453125 L 0.328125 -0.125 C 0.328125 0.046875 0.328125 0.109375 0.4375 0.109375 C 0.484375 0.109375 0.5 0.09375 0.6875 -0.09375 C 0.703125 -0.109375 0.703125 -0.125 0.890625 -0.3125 C 1.328125 0.09375 1.78125 0.109375 1.984375 0.109375 C 3.125 0.109375 3.59375 -0.5625 3.59375 -1.28125 Z M 3.59375 -1.28125 "/>
</g>
<g id="glyph-4-6">
<path d="M 2.875 -2.5 C 2.875 -3.265625 2.765625 -4.46875 2.21875 -5.609375 C 1.625 -6.828125 0.765625 -7.484375 0.671875 -7.484375 C 0.609375 -7.484375 0.5625 -7.4375 0.5625 -7.375 C 0.5625 -7.34375 0.5625 -7.328125 0.75 -7.140625 C 1.734375 -6.15625 2.296875 -4.578125 2.296875 -2.5 C 2.296875 -0.78125 1.9375 0.96875 0.703125 2.21875 C 0.5625 2.34375 0.5625 2.359375 0.5625 2.390625 C 0.5625 2.453125 0.609375 2.5 0.671875 2.5 C 0.765625 2.5 1.671875 1.8125 2.25 0.546875 C 2.765625 -0.546875 2.875 -1.65625 2.875 -2.5 Z M 2.875 -2.5 "/>
</g>
<g id="glyph-4-7">
<path d="M 4.828125 -4.03125 C 4.828125 -4.203125 4.71875 -4.515625 4.328125 -4.515625 C 4.125 -4.515625 3.6875 -4.453125 3.265625 -4.046875 C 2.84375 -4.375 2.4375 -4.40625 2.21875 -4.40625 C 1.28125 -4.40625 0.59375 -3.71875 0.59375 -2.953125 C 0.59375 -2.515625 0.8125 -2.140625 1.0625 -1.921875 C 0.9375 -1.78125 0.75 -1.453125 0.75 -1.09375 C 0.75 -0.78125 0.890625 -0.40625 1.203125 -0.203125 C 0.59375 -0.046875 0.28125 0.390625 0.28125 0.78125 C 0.28125 1.5 1.265625 2.046875 2.484375 2.046875 C 3.65625 2.046875 4.6875 1.546875 4.6875 0.765625 C 4.6875 0.421875 4.5625 -0.09375 4.046875 -0.375 C 3.515625 -0.640625 2.9375 -0.640625 2.328125 -0.640625 C 2.078125 -0.640625 1.65625 -0.640625 1.578125 -0.65625 C 1.265625 -0.703125 1.0625 -1 1.0625 -1.328125 C 1.0625 -1.359375 1.0625 -1.59375 1.21875 -1.796875 C 1.609375 -1.515625 2.03125 -1.484375 2.21875 -1.484375 C 3.140625 -1.484375 3.828125 -2.171875 3.828125 -2.9375 C 3.828125 -3.3125 3.671875 -3.671875 3.421875 -3.90625 C 3.78125 -4.25 4.140625 -4.296875 4.3125 -4.296875 C 4.3125 -4.296875 4.390625 -4.296875 4.421875 -4.28125 C 4.3125 -4.25 4.25 -4.140625 4.25 -4.015625 C 4.25 -3.84375 4.390625 -3.734375 4.546875 -3.734375 C 4.640625 -3.734375 4.828125 -3.796875 4.828125 -4.03125 Z M 3.078125 -2.953125 C 3.078125 -2.6875 3.078125 -2.359375 2.921875 -2.109375 C 2.84375 -2 2.609375 -1.71875 2.21875 -1.71875 C 1.34375 -1.71875 1.34375 -2.71875 1.34375 -2.9375 C 1.34375 -3.203125 1.359375 -3.53125 1.5 -3.78125 C 1.578125 -3.890625 1.8125 -4.171875 2.21875 -4.171875 C 3.078125 -4.171875 3.078125 -3.1875 3.078125 -2.953125 Z M 4.171875 0.78125 C 4.171875 1.328125 3.46875 1.828125 2.5 1.828125 C 1.484375 1.828125 0.796875 1.3125 0.796875 0.78125 C 0.796875 0.328125 1.171875 -0.046875 1.609375 -0.0625 L 2.203125 -0.0625 C 3.0625 -0.0625 4.171875 -0.0625 4.171875 0.78125 Z M 4.171875 0.78125 "/>
</g>
<g id="glyph-4-8">
<path d="M 4.8125 -0.890625 L 4.8125 -1.453125 L 4.5625 -1.453125 L 4.5625 -0.890625 C 4.5625 -0.3125 4.3125 -0.25 4.203125 -0.25 C 3.875 -0.25 3.84375 -0.703125 3.84375 -0.75 L 3.84375 -2.734375 C 3.84375 -3.15625 3.84375 -3.546875 3.484375 -3.921875 C 3.09375 -4.3125 2.59375 -4.46875 2.109375 -4.46875 C 1.296875 -4.46875 0.609375 -4 0.609375 -3.34375 C 0.609375 -3.046875 0.8125 -2.875 1.0625 -2.875 C 1.34375 -2.875 1.53125 -3.078125 1.53125 -3.328125 C 1.53125 -3.453125 1.46875 -3.78125 1.015625 -3.78125 C 1.28125 -4.140625 1.78125 -4.25 2.09375 -4.25 C 2.578125 -4.25 3.15625 -3.859375 3.15625 -2.96875 L 3.15625 -2.609375 C 2.640625 -2.578125 1.9375 -2.546875 1.3125 -2.25 C 0.5625 -1.90625 0.3125 -1.390625 0.3125 -0.953125 C 0.3125 -0.140625 1.28125 0.109375 1.90625 0.109375 C 2.578125 0.109375 3.03125 -0.296875 3.21875 -0.75 C 3.265625 -0.359375 3.53125 0.0625 4 0.0625 C 4.203125 0.0625 4.8125 -0.078125 4.8125 -0.890625 Z M 3.15625 -1.390625 C 3.15625 -0.453125 2.4375 -0.109375 1.984375 -0.109375 C 1.5 -0.109375 1.09375 -0.453125 1.09375 -0.953125 C 1.09375 -1.5 1.5 -2.328125 3.15625 -2.390625 Z M 3.15625 -1.390625 "/>
</g>
<g id="glyph-4-9">
<path d="M 4.6875 -2.140625 C 4.6875 -3.40625 3.703125 -4.46875 2.5 -4.46875 C 1.25 -4.46875 0.28125 -3.375 0.28125 -2.140625 C 0.28125 -0.84375 1.3125 0.109375 2.484375 0.109375 C 3.6875 0.109375 4.6875 -0.875 4.6875 -2.140625 Z M 3.875 -2.21875 C 3.875 -1.859375 3.875 -1.3125 3.65625 -0.875 C 3.421875 -0.421875 2.984375 -0.140625 2.5 -0.140625 C 2.0625 -0.140625 1.625 -0.34375 1.359375 -0.8125 C 1.109375 -1.25 1.109375 -1.859375 1.109375 -2.21875 C 1.109375 -2.609375 1.109375 -3.140625 1.34375 -3.578125 C 1.609375 -4.03125 2.078125 -4.25 2.484375 -4.25 C 2.921875 -4.25 3.34375 -4.03125 3.609375 -3.59375 C 3.875 -3.171875 3.875 -2.59375 3.875 -2.21875 Z M 3.875 -2.21875 "/>
</g>
<g id="glyph-4-10">
<path d="M 5.328125 0 L 5.328125 -0.3125 C 4.8125 -0.3125 4.5625 -0.3125 4.5625 -0.609375 L 4.5625 -2.515625 C 4.5625 -3.375 4.5625 -3.671875 4.25 -4.03125 C 4.109375 -4.203125 3.78125 -4.40625 3.203125 -4.40625 C 2.46875 -4.40625 2 -3.984375 1.71875 -3.359375 L 1.71875 -4.40625 L 0.3125 -4.296875 L 0.3125 -3.984375 C 1.015625 -3.984375 1.09375 -3.921875 1.09375 -3.421875 L 1.09375 -0.75 C 1.09375 -0.3125 0.984375 -0.3125 0.3125 -0.3125 L 0.3125 0 L 1.453125 -0.03125 L 2.5625 0 L 2.5625 -0.3125 C 1.890625 -0.3125 1.78125 -0.3125 1.78125 -0.75 L 1.78125 -2.59375 C 1.78125 -3.625 2.5 -4.1875 3.125 -4.1875 C 3.765625 -4.1875 3.875 -3.65625 3.875 -3.078125 L 3.875 -0.75 C 3.875 -0.3125 3.765625 -0.3125 3.09375 -0.3125 L 3.09375 0 L 4.21875 -0.03125 Z M 5.328125 0 "/>
</g>
</g>
</defs>
<path fill-rule="nonzero" fill="rgb(100%, 98.469543%, 70.001221%)" fill-opacity="1" d="M 13.550781 141.917969 L 172.761719 141.917969 L 172.761719 4.597656 L 13.550781 4.597656 Z M 13.550781 141.917969 "/>
<path fill="none" stroke-width="0.3985" stroke-linecap="butt" stroke-linejoin="miter" stroke="rgb(79.998779%, 79.998779%, 79.998779%)" stroke-opacity="1" stroke-miterlimit="10" d="M 31.842112 0.00164635 L 31.842112 137.31372 M 63.680363 0.00164635 L 63.680363 137.31372 M 95.522521 0.00164635 L 95.522521 137.31372 M 127.360773 0.00164635 L 127.360773 137.31372 M 159.202931 0.00164635 L 159.202931 137.31372 " transform="matrix(1.00005, 0, 0, -1.00006, 13.550827, 141.919615)"/>
<path fill="none" stroke-width="0.3985" stroke-linecap="butt" stroke-linejoin="miter" stroke="rgb(79.998779%, 79.998779%, 79.998779%)" stroke-opacity="1" stroke-miterlimit="10" d="M -0.0000462477 34.327712 L 159.202931 34.327712 M -0.0000462477 68.657683 L 159.202931 68.657683 M -0.0000462477 102.983749 L 159.202931 102.983749 M -0.0000462477 137.31372 L 159.202931 137.31372 " transform="matrix(1.00005, 0, 0, -1.00006, 13.550827, 141.919615)"/>
<path fill="none" stroke-width="0.19925" stroke-linecap="butt" stroke-linejoin="miter" stroke="rgb(50%, 50%, 50%)" stroke-opacity="1" stroke-miterlimit="10" d="M -0.0000462477 -1.416237 L -0.0000462477 1.415624 M 6.366823 -1.416237 L 6.366823 1.415624 M 12.737598 -1.416237 L 12.737598 1.415624 M 19.104467 -1.416237 L 19.104467 1.415624 M 25.471336 -1.416237 L 25.471336 1.415624 M 31.842112 -1.416237 L 31.842112 1.415624 M 38.208981 -1.416237 L 38.208981 1.415624 M 44.57585 -1.416237 L 44.57585 1.415624 M 50.946625 -1.416237 L 50.946625 1.415624 M 57.313494 -1.416237 L 57.313494 1.415624 M 63.680363 -1.416237 L 63.680363 1.415624 M 70.051139 -1.416237 L 70.051139 1.415624 M 76.418008 -1.416237 L 76.418008 1.415624 M 82.784877 -1.416237 L 82.784877 1.415624 M 89.151746 -1.416237 L 89.151746 1.415624 M 95.522521 -1.416237 L 95.522521 1.415624 M 101.889391 -1.416237 L 101.889391 1.415624 M 108.25626 -1.416237 L 108.25626 1.415624 M 114.627035 -1.416237 L 114.627035 1.415624 M 120.993904 -1.416237 L 120.993904 1.415624 M 127.360773 -1.416237 L 127.360773 1.415624 M 133.731548 -1.416237 L 133.731548 1.415624 M 140.098418 -1.416237 L 140.098418 1.415624 M 146.465287 -1.416237 L 146.465287 1.415624 M 152.836062 -1.416237 L 152.836062 1.415624 M 159.202931 -1.416237 L 159.202931 1.415624 " transform="matrix(1.00005, 0, 0, -1.00006, 13.550827, 141.919615)"/>
<path fill="none" stroke-width="0.19925" stroke-linecap="butt" stroke-linejoin="miter" stroke="rgb(50%, 50%, 50%)" stroke-opacity="1" stroke-miterlimit="10" d="M 31.842112 -2.127132 L 31.842112 2.126519 M 63.680363 -2.127132 L 63.680363 2.126519 M 95.522521 -2.127132 L 95.522521 2.126519 M 127.360773 -2.127132 L 127.360773 2.126519 M 159.202931 -2.127132 L 159.202931 2.126519 " transform="matrix(1.00005, 0, 0, -1.00006, 13.550827, 141.919615)"/>
<path fill="none" stroke-width="0.19925" stroke-linecap="butt" stroke-linejoin="miter" stroke="rgb(50%, 50%, 50%)" stroke-opacity="1" stroke-miterlimit="10" d="M -1.417944 0.00164635 L 1.417852 0.00164635 M -1.417944 6.864516 L 1.417852 6.864516 M -1.417944 13.731291 L 1.417852 13.731291 M -1.417944 20.598067 L 1.417852 20.598067 M -1.417944 27.460936 L 1.417852 27.460936 M -1.417944 34.327712 L 1.417852 34.327712 M -1.417944 41.194487 L 1.417852 41.194487 M -1.417944 48.061263 L 1.417852 48.061263 M -1.417944 54.924132 L 1.417852 54.924132 M -1.417944 61.790908 L 1.417852 61.790908 M -1.417944 68.657683 L 1.417852 68.657683 M -1.417944 75.520553 L 1.417852 75.520553 M -1.417944 82.387328 L 1.417852 82.387328 M -1.417944 89.254104 L 1.417852 89.254104 M -1.417944 96.120879 L 1.417852 96.120879 M -1.417944 102.983749 L 1.417852 102.983749 M -1.417944 109.850524 L 1.417852 109.850524 M -1.417944 116.7173 L 1.417852 116.7173 M -1.417944 123.580169 L 1.417852 123.580169 M -1.417944 130.446945 L 1.417852 130.446945 M -1.417944 137.31372 L 1.417852 137.31372 " transform="matrix(1.00005, 0, 0, -1.00006, 13.550827, 141.919615)"/>
<path fill="none" stroke-width="0.19925" stroke-linecap="butt" stroke-linejoin="miter" stroke="rgb(50%, 50%, 50%)" stroke-opacity="1" stroke-miterlimit="10" d="M -2.12494 34.327712 L 2.124848 34.327712 M -2.12494 68.657683 L 2.124848 68.657683 M -2.12494 102.983749 L 2.124848 102.983749 M -2.12494 137.31372 L 2.124848 137.31372 " transform="matrix(1.00005, 0, 0, -1.00006, 13.550827, 141.919615)"/>
<path fill="none" stroke-width="0.3985" stroke-linecap="butt" stroke-linejoin="miter" stroke="rgb(0%, 0%, 0%)" stroke-opacity="1" stroke-miterlimit="10" d="M -0.0000462477 0.00164635 L 157.210843 0.00164635 " transform="matrix(1.00005, 0, 0, -1.00006, 13.550827, 141.919615)"/>
<path fill-rule="nonzero" fill="rgb(0%, 0%, 0%)" fill-opacity="1" d="M 172.761719 141.917969 L 169.574219 140.324219 L 170.769531 141.917969 L 169.574219 143.515625 "/>
<path fill="none" stroke-width="0.3985" stroke-linecap="butt" stroke-linejoin="miter" stroke="rgb(0%, 0%, 0%)" stroke-opacity="1" stroke-miterlimit="10" d="M -0.0000462477 0.00164635 L -0.0000462477 135.321652 " transform="matrix(1.00005, 0, 0, -1.00006, 13.550827, 141.919615)"/>
<path fill-rule="nonzero" fill="rgb(0%, 0%, 0%)" fill-opacity="1" d="M 13.550781 4.597656 L 11.957031 7.785156 L 13.550781 6.589844 L 15.144531 7.785156 "/>
<g fill="rgb(0%, 0%, 0%)" fill-opacity="1">
<use xlink:href="#glyph-0-0" x="41.158208" y="152.702262"/>
<use xlink:href="#glyph-0-1" x="45.390543" y="152.702262"/>
</g>
<g fill="rgb(0%, 0%, 0%)" fill-opacity="1">
<use xlink:href="#glyph-0-2" x="70.883694" y="152.702262"/>
<use xlink:href="#glyph-0-1" x="75.116029" y="152.702262"/>
<use xlink:href="#glyph-0-1" x="79.348363" y="152.702262"/>
</g>
<g fill="rgb(0%, 0%, 0%)" fill-opacity="1">
<use xlink:href="#glyph-0-2" x="102.725286" y="152.702262"/>
<use xlink:href="#glyph-0-0" x="106.957621" y="152.702262"/>
<use xlink:href="#glyph-0-1" x="111.189955" y="152.702262"/>
</g>
<g fill="rgb(0%, 0%, 0%)" fill-opacity="1">
<use xlink:href="#glyph-0-3" x="134.567878" y="152.702262"/>
<use xlink:href="#glyph-0-1" x="138.800213" y="152.702262"/>
<use xlink:href="#glyph-0-1" x="143.032547" y="152.702262"/>
</g>
<g fill="rgb(0%, 0%, 0%)" fill-opacity="1">
<use xlink:href="#glyph-0-3" x="166.40947" y="152.702262"/>
<use xlink:href="#glyph-0-0" x="170.641805" y="152.702262"/>
<use xlink:href="#glyph-0-1" x="174.874139" y="152.702262"/>
</g>
<g fill="rgb(0%, 0%, 0%)" fill-opacity="1">
<use xlink:href="#glyph-0-0" x="5.561428" y="110.15771"/>
</g>
<g fill="rgb(0%, 0%, 0%)" fill-opacity="1">
<use xlink:href="#glyph-0-2" x="1.327216" y="75.82665"/>
<use xlink:href="#glyph-0-1" x="5.559551" y="75.82665"/>
</g>
<g fill="rgb(0%, 0%, 0%)" fill-opacity="1">
<use xlink:href="#glyph-0-2" x="1.327216" y="41.49659"/>
<use xlink:href="#glyph-0-0" x="5.559551" y="41.49659"/>
</g>
<g fill="rgb(0%, 0%, 0%)" fill-opacity="1">
<use xlink:href="#glyph-0-3" x="1.327216" y="7.166531"/>
<use xlink:href="#glyph-0-1" x="5.559551" y="7.166531"/>
</g>
<path fill="none" stroke-width="0.99628" stroke-linecap="butt" stroke-linejoin="miter" stroke="rgb(61.959839%, 4.705811%, 5.880737%)" stroke-opacity="1" stroke-miterlimit="10" d="M -0.0000462477 96.120879 L 13.264916 91.543029 L 19.901302 89.254104 L 39.798745 82.387328 L 46.435132 80.098403 L 59.700094 75.520553 L 66.332575 73.235534 L 72.968962 70.946608 L 92.866404 64.079833 L 99.502791 61.790908 L 126.032715 52.635207 L 132.669102 50.350188 L 152.566544 43.483412 L 156.468693 42.135837 " transform="matrix(1.00005, 0, 0, -1.00006, 13.550827, 141.919615)"/>
<path fill-rule="nonzero" fill="rgb(61.959839%, 4.705811%, 5.880737%)" fill-opacity="1" d="M 172.761719 100.722656 L 169.144531 97.03125 L 170.027344 99.78125 L 167.636719 101.398438 "/>
<g fill="rgb(61.999512%, 4.699707%, 5.899048%)" fill-opacity="1">
<use xlink:href="#glyph-1-0" x="26.331071" y="43.2231"/>
<use xlink:href="#glyph-1-1" x="29.678867" y="41.29024"/>
<use xlink:href="#glyph-1-2" x="33.993038" y="38.79944"/>
</g>
<g fill="rgb(61.999512%, 4.699707%, 5.899048%)" fill-opacity="1">
<use xlink:href="#glyph-2-0" x="38.314927" y="36.304185"/>
</g>
<g fill="rgb(61.999512%, 4.699707%, 5.899048%)" fill-opacity="1">
<use xlink:href="#glyph-1-3" x="42.149899" y="34.090052"/>
<use xlink:href="#glyph-1-4" x="46.46407" y="31.599253"/>
</g>
<g fill="rgb(61.999512%, 4.699707%, 5.899048%)" fill-opacity="1">
<use xlink:href="#glyph-2-1" x="50.777722" y="29.108753"/>
</g>
<g fill="rgb(61.999512%, 4.699707%, 5.899048%)" fill-opacity="1">
<use xlink:href="#glyph-1-4" x="53.175013" y="27.72467"/>
<use xlink:href="#glyph-1-5" x="57.489183" y="25.233871"/>
<use xlink:href="#glyph-1-6" x="61.803354" y="22.743072"/>
</g>
<g fill="rgb(61.999512%, 4.699707%, 5.899048%)" fill-opacity="1">
<use xlink:href="#glyph-1-0" x="45.436026" y="49.814496"/>
<use xlink:href="#glyph-1-7" x="48.783822" y="47.881635"/>
<use xlink:href="#glyph-1-2" x="53.097993" y="45.390836"/>
</g>
<g fill="rgb(61.999512%, 4.699707%, 5.899048%)" fill-opacity="1">
<use xlink:href="#glyph-2-0" x="57.419882" y="42.895581"/>
</g>
<g fill="rgb(61.999512%, 4.699707%, 5.899048%)" fill-opacity="1">
<use xlink:href="#glyph-1-3" x="61.254855" y="40.681448"/>
<use xlink:href="#glyph-1-1" x="65.569026" y="38.190648"/>
</g>
<g fill="rgb(61.999512%, 4.699707%, 5.899048%)" fill-opacity="1">
<use xlink:href="#glyph-2-1" x="69.882677" y="35.700149"/>
</g>
<g fill="rgb(61.999512%, 4.699707%, 5.899048%)" fill-opacity="1">
<use xlink:href="#glyph-1-8" x="72.279968" y="34.316066"/>
<use xlink:href="#glyph-1-6" x="76.594139" y="31.825266"/>
</g>
<g fill="rgb(61.999512%, 4.699707%, 5.899048%)" fill-opacity="1">
<use xlink:href="#glyph-1-0" x="64.540981" y="56.405891"/>
<use xlink:href="#glyph-1-9" x="67.888778" y="54.473031"/>
<use xlink:href="#glyph-1-2" x="72.202949" y="51.982231"/>
</g>
<g fill="rgb(61.999512%, 4.699707%, 5.899048%)" fill-opacity="1">
<use xlink:href="#glyph-2-0" x="76.524837" y="49.486976"/>
</g>
<g fill="rgb(61.999512%, 4.699707%, 5.899048%)" fill-opacity="1">
<use xlink:href="#glyph-1-3" x="80.35981" y="47.272843"/>
<use xlink:href="#glyph-1-3" x="84.673981" y="44.782044"/>
</g>
<g fill="rgb(61.999512%, 4.699707%, 5.899048%)" fill-opacity="1">
<use xlink:href="#glyph-2-1" x="88.987632" y="42.291544"/>
</g>
<g fill="rgb(61.999512%, 4.699707%, 5.899048%)" fill-opacity="1">
<use xlink:href="#glyph-1-8" x="91.384923" y="40.907461"/>
<use xlink:href="#glyph-1-8" x="95.699094" y="38.416662"/>
<use xlink:href="#glyph-1-6" x="100.013265" y="35.925862"/>
</g>
<g fill="rgb(61.999512%, 4.699707%, 5.899048%)" fill-opacity="1">
<use xlink:href="#glyph-1-0" x="77.278618" y="60.800155"/>
<use xlink:href="#glyph-1-3" x="80.626414" y="58.867294"/>
<use xlink:href="#glyph-1-2" x="84.940585" y="56.376495"/>
<use xlink:href="#glyph-1-2" x="89.254756" y="53.885696"/>
</g>
<g fill="rgb(61.999512%, 4.699707%, 5.899048%)" fill-opacity="1">
<use xlink:href="#glyph-2-0" x="93.576385" y="51.39059"/>
</g>
<g fill="rgb(61.999512%, 4.699707%, 5.899048%)" fill-opacity="1">
<use xlink:href="#glyph-1-3" x="97.411358" y="49.176457"/>
<use xlink:href="#glyph-1-2" x="101.725529" y="46.685658"/>
</g>
<g fill="rgb(61.999512%, 4.699707%, 5.899048%)" fill-opacity="1">
<use xlink:href="#glyph-2-1" x="106.040046" y="44.194659"/>
</g>
<g fill="rgb(61.999512%, 4.699707%, 5.899048%)" fill-opacity="1">
<use xlink:href="#glyph-1-9" x="108.436471" y="42.811076"/>
<use xlink:href="#glyph-1-6" x="112.750642" y="40.320276"/>
</g>
<g fill="rgb(61.999512%, 4.699707%, 5.899048%)" fill-opacity="1">
<use xlink:href="#glyph-1-0" x="140.962802" y="82.771473"/>
<use xlink:href="#glyph-1-1" x="144.310599" y="80.838613"/>
<use xlink:href="#glyph-1-2" x="148.624769" y="78.347813"/>
<use xlink:href="#glyph-1-2" x="152.93894" y="75.857014"/>
</g>
<g fill="rgb(61.999512%, 4.699707%, 5.899048%)" fill-opacity="1">
<use xlink:href="#glyph-2-0" x="157.260569" y="73.361908"/>
</g>
<g fill="rgb(61.999512%, 4.699707%, 5.899048%)" fill-opacity="1">
<use xlink:href="#glyph-1-10" x="161.095542" y="71.147776"/>
</g>
<g fill="rgb(61.999512%, 4.699707%, 5.899048%)" fill-opacity="1">
<use xlink:href="#glyph-2-1" x="165.409453" y="68.657126"/>
</g>
<g fill="rgb(61.999512%, 4.699707%, 5.899048%)" fill-opacity="1">
<use xlink:href="#glyph-1-5" x="167.806744" y="67.273043"/>
<use xlink:href="#glyph-1-6" x="172.120915" y="64.782244"/>
</g>
<path fill-rule="nonzero" fill="rgb(61.959839%, 4.705811%, 5.880737%)" fill-opacity="1" stroke-width="0.3985" stroke-linecap="butt" stroke-linejoin="miter" stroke="rgb(61.959839%, 4.705811%, 5.880737%)" stroke-opacity="1" stroke-miterlimit="10" d="M 14.729686 91.726612 C 14.729686 92.824202 13.835199 93.71868 12.737598 93.71868 C 11.636091 93.71868 10.74551 92.824202 10.74551 91.726612 C 10.74551 90.625115 11.636091 89.734544 12.737598 89.734544 C 13.835199 89.734544 14.729686 90.625115 14.729686 91.726612 Z M 14.729686 91.726612 " transform="matrix(1.00005, 0, 0, -1.00006, 13.550827, 141.919615)"/>
<path fill-rule="nonzero" fill="rgb(61.959839%, 4.705811%, 5.880737%)" fill-opacity="1" stroke-width="0.3985" stroke-linecap="butt" stroke-linejoin="miter" stroke="rgb(61.959839%, 4.705811%, 5.880737%)" stroke-opacity="1" stroke-miterlimit="10" d="M 33.8342 85.133257 C 33.8342 86.234754 32.939713 87.125325 31.842112 87.125325 C 30.740604 87.125325 29.846118 86.234754 29.846118 85.133257 C 29.846118 84.035667 30.740604 83.141189 31.842112 83.141189 C 32.939713 83.141189 33.8342 84.035667 33.8342 85.133257 Z M 33.8342 85.133257 " transform="matrix(1.00005, 0, 0, -1.00006, 13.550827, 141.919615)"/>
<path fill-rule="nonzero" fill="rgb(61.959839%, 4.705811%, 5.880737%)" fill-opacity="1" stroke-width="0.3985" stroke-linecap="butt" stroke-linejoin="miter" stroke="rgb(61.959839%, 4.705811%, 5.880737%)" stroke-opacity="1" stroke-miterlimit="10" d="M 52.938713 78.543809 C 52.938713 79.645305 52.044227 80.535877 50.946625 80.535877 C 49.845118 80.535877 48.950631 79.645305 48.950631 78.543809 C 48.950631 77.442312 49.845118 76.551741 50.946625 76.551741 C 52.044227 76.551741 52.938713 77.442312 52.938713 78.543809 Z M 52.938713 78.543809 " transform="matrix(1.00005, 0, 0, -1.00006, 13.550827, 141.919615)"/>
<path fill-rule="nonzero" fill="rgb(61.959839%, 4.705811%, 5.880737%)" fill-opacity="1" stroke-width="0.3985" stroke-linecap="butt" stroke-linejoin="miter" stroke="rgb(61.959839%, 4.705811%, 5.880737%)" stroke-opacity="1" stroke-miterlimit="10" d="M 65.672451 74.149541 C 65.672451 75.251038 64.781871 76.141609 63.680363 76.141609 C 62.578856 76.141609 61.688276 75.251038 61.688276 74.149541 C 61.688276 73.048045 62.578856 72.157473 63.680363 72.157473 C 64.781871 72.157473 65.672451 73.048045 65.672451 74.149541 Z M 65.672451 74.149541 " transform="matrix(1.00005, 0, 0, -1.00006, 13.550827, 141.919615)"/>
<path fill-rule="nonzero" fill="rgb(61.959839%, 4.705811%, 5.880737%)" fill-opacity="1" stroke-width="0.3985" stroke-linecap="butt" stroke-linejoin="miter" stroke="rgb(61.959839%, 4.705811%, 5.880737%)" stroke-opacity="1" stroke-miterlimit="10" d="M 129.352861 52.178203 C 129.352861 53.2797 128.462281 54.170271 127.360773 54.170271 C 126.263172 54.170271 125.368685 53.2797 125.368685 52.178203 C 125.368685 51.076707 126.263172 50.186135 127.360773 50.186135 C 128.462281 50.186135 129.352861 51.076707 129.352861 52.178203 Z M 129.352861 52.178203 " transform="matrix(1.00005, 0, 0, -1.00006, 13.550827, 141.919615)"/>
<g fill="rgb(0%, 0%, 0%)" fill-opacity="1">
<use xlink:href="#glyph-3-0" x="130.278664" y="135.909255"/>
</g>
<g fill="rgb(0%, 0%, 0%)" fill-opacity="1">
<use xlink:href="#glyph-4-0" x="139.290114" y="135.909255"/>
<use xlink:href="#glyph-4-1" x="143.165759" y="135.909255"/>
<use xlink:href="#glyph-4-2" x="151.46502" y="135.909255"/>
<use xlink:href="#glyph-4-3" x="154.234761" y="135.909255"/>
<use xlink:href="#glyph-4-4" x="157.004503" y="135.909255"/>
<use xlink:href="#glyph-4-5" x="161.428118" y="135.909255"/>
<use xlink:href="#glyph-4-6" x="165.353579" y="135.909255"/>
</g>
<g fill="rgb(0%, 0%, 0%)" fill-opacity="1">
<use xlink:href="#glyph-3-1" x="17.071004" y="15.594036"/>
</g>
<g fill="rgb(0%, 0%, 0%)" fill-opacity="1">
<use xlink:href="#glyph-4-0" x="25.630431" y="15.594036"/>
<use xlink:href="#glyph-4-7" x="29.506077" y="15.594036"/>
<use xlink:href="#glyph-4-8" x="34.487626" y="15.594036"/>
<use xlink:href="#glyph-4-3" x="39.469175" y="15.594036"/>
<use xlink:href="#glyph-4-3" x="42.238916" y="15.594036"/>
<use xlink:href="#glyph-4-9" x="45.008657" y="15.594036"/>
<use xlink:href="#glyph-4-10" x="49.990206" y="15.594036"/>
<use xlink:href="#glyph-4-5" x="55.529689" y="15.594036"/>
<use xlink:href="#glyph-4-6" x="59.45515" y="15.594036"/>
</g>
</svg>
