<?xml version="1.0" encoding="UTF-8"?>
<svg xmlns="http://www.w3.org/2000/svg" xmlns:xlink="http://www.w3.org/1999/xlink" width="55pt" height="80pt" viewBox="0 0 55 80" version="1.1">
<g id="surface1">
<path style="fill-rule:nonzero;fill:rgb(92.391968%,80.941772%,81.176758%);fill-opacity:1;stroke-width:0.3985;stroke-linecap:butt;stroke-linejoin:miter;stroke:rgb(0%,0%,0%);stroke-opacity:1;stroke-miterlimit:10;" d="M 25.51107 0.00106687 C 25.51107 2.114158 14.089538 3.824941 0.000116756 3.824941 C -14.089304 3.824941 -25.510837 2.114158 -25.510837 0.00106687 C -25.510837 -2.112024 -14.089304 -3.826714 0.000116756 -3.826714 C 14.089538 -3.826714 25.51107 -2.112024 25.51107 0.00106687 Z M 25.51107 0.00106687 " transform="matrix(1.00003,0,0,-1.00009,27.609258,5.626067)"/>
<path style="fill-rule:nonzero;fill:rgb(96.195984%,90.470886%,90.586853%);fill-opacity:1;stroke-width:0.3985;stroke-linecap:butt;stroke-linejoin:miter;stroke:rgb(0%,0%,0%);stroke-opacity:1;stroke-miterlimit:10;" d="M 25.51107 0.00106687 C 25.51107 -2.112024 14.089538 -3.826714 0.000116756 -3.826714 C -14.089304 -3.826714 -25.510837 -2.112024 -25.510837 0.00106687 L -25.510837 -68.031873 C -25.510837 -70.383224 -14.089304 -72.285396 0.000116756 -72.285396 C 14.089538 -72.285396 25.51107 -70.383224 25.51107 -68.031873 Z M 25.51107 0.00106687 " transform="matrix(1.00003,0,0,-1.00009,27.609258,5.626067)"/>
<path style="fill:none;stroke-width:0.3985;stroke-linecap:butt;stroke-linejoin:miter;stroke:rgb(0%,0%,0%);stroke-opacity:1;stroke-dasharray:2.98883,2.98883;stroke-miterlimit:10;" d="M -25.510837 -68.031873 C -25.510837 -65.684428 -14.089304 -63.782255 0.000116756 -63.782255 C 14.089538 -63.782255 25.51107 -65.684428 25.51107 -68.031873 " transform="matrix(1.00003,0,0,-1.00009,27.609258,5.626067)"/>
</g>
</svg>
