<?xml version="1.0" encoding="UTF-8"?>
<svg xmlns="http://www.w3.org/2000/svg" xmlns:xlink="http://www.w3.org/1999/xlink" width="158pt" height="40pt" viewBox="0 0 158 40" version="1.1">
<g id="surface1">
<path style="fill-rule:nonzero;fill:rgb(69.999695%,85.058594%,87.998962%);fill-opacity:0.5;stroke-width:0.3985;stroke-linecap:butt;stroke-linejoin:miter;stroke:rgb(0%,0%,0%);stroke-opacity:0.5;stroke-miterlimit:10;" d="M 0.00150137 85.041562 L 56.693979 85.041562 L 70.298768 95.244687 L 124.725734 95.244687 L 153.638351 121.268125 L 56.354152 121.268125 Z M 0.00150137 85.041562 " transform="matrix(1.00005,0,0,-1,2.096155,123.065)"/>
<path style="fill:none;stroke-width:0.3985;stroke-linecap:butt;stroke-linejoin:miter;stroke:rgb(0%,0%,0%);stroke-opacity:1;stroke-miterlimit:10;" d="M 0.00150137 85.041562 L 56.354152 121.268125 " transform="matrix(1.00005,0,0,-1,2.096155,123.065)"/>
<path style="fill:none;stroke-width:0.3985;stroke-linecap:butt;stroke-linejoin:miter;stroke:rgb(0%,0%,0%);stroke-opacity:1;stroke-miterlimit:10;" d="M 28.34774 85.041562 L 80.673249 121.268125 " transform="matrix(1.00005,0,0,-1,2.096155,123.065)"/>
<path style="fill:none;stroke-width:0.3985;stroke-linecap:butt;stroke-linejoin:miter;stroke:rgb(0%,0%,0%);stroke-opacity:1;stroke-miterlimit:10;" d="M 56.693979 85.041562 L 104.996252 121.268125 " transform="matrix(1.00005,0,0,-1,2.096155,123.065)"/>
<path style="fill:none;stroke-width:0.3985;stroke-linecap:butt;stroke-linejoin:miter;stroke:rgb(0%,0%,0%);stroke-opacity:1;stroke-miterlimit:10;" d="M 97.512251 95.244687 L 129.319254 121.268125 " transform="matrix(1.00005,0,0,-1,2.096155,123.065)"/>
<path style="fill:none;stroke-width:0.3985;stroke-linecap:butt;stroke-linejoin:miter;stroke:rgb(0%,0%,0%);stroke-opacity:1;stroke-miterlimit:10;" d="M 124.725734 95.244687 L 153.638351 121.268125 " transform="matrix(1.00005,0,0,-1,2.096155,123.065)"/>
<path style="fill:none;stroke-width:0.3985;stroke-linecap:butt;stroke-linejoin:miter;stroke:rgb(0%,0%,0%);stroke-opacity:1;stroke-miterlimit:10;" d="M 124.725734 95.244687 L 15.871802 95.244687 " transform="matrix(1.00005,0,0,-1,2.096155,123.065)"/>
<path style="fill:none;stroke-width:0.3985;stroke-linecap:butt;stroke-linejoin:miter;stroke:rgb(0%,0%,0%);stroke-opacity:1;stroke-miterlimit:10;" d="M 134.932255 104.432187 L 30.164056 104.432187 " transform="matrix(1.00005,0,0,-1,2.096155,123.065)"/>
<path style="fill:none;stroke-width:0.3985;stroke-linecap:butt;stroke-linejoin:miter;stroke:rgb(0%,0%,0%);stroke-opacity:1;stroke-miterlimit:10;" d="M 144.568492 113.104062 L 43.655569 113.104062 " transform="matrix(1.00005,0,0,-1,2.096155,123.065)"/>
<path style="fill:none;stroke-width:0.3985;stroke-linecap:butt;stroke-linejoin:miter;stroke:rgb(0%,0%,0%);stroke-opacity:1;stroke-miterlimit:10;" d="M 153.638351 121.268125 L 56.354152 121.268125 " transform="matrix(1.00005,0,0,-1,2.096155,123.065)"/>
<path style="fill:none;stroke-width:0.3985;stroke-linecap:butt;stroke-linejoin:miter;stroke:rgb(0%,0%,0%);stroke-opacity:1;stroke-miterlimit:10;" d="M 0.00150137 85.041562 L 56.693979 85.041562 " transform="matrix(1.00005,0,0,-1,2.096155,123.065)"/>
</g>
</svg>
