<?xml version="1.0" encoding="UTF-8"?>
<svg xmlns="http://www.w3.org/2000/svg" xmlns:xlink="http://www.w3.org/1999/xlink" width="457pt" height="95pt" viewBox="0 0 457 95" version="1.1">
<g id="surface1">
<path style=" stroke:none;fill-rule:nonzero;fill:rgb(79.998779%,90.037537%,91.999817%);fill-opacity:1;" d="M 16.269531 93.53125 L 16.269531 32.386719 L 72.964844 32.386719 L 72.964844 93.53125 Z M 16.269531 93.53125 "/>
<path style="fill:none;stroke-width:0.3985;stroke-linecap:butt;stroke-linejoin:miter;stroke:rgb(0%,0%,0%);stroke-opacity:1;stroke-miterlimit:10;" d="M -0.000332183 0.0000759277 L -0.000332183 91.731699 L 56.692146 91.731699 L 56.692146 0.0000759277 Z M -0.000332183 0.0000759277 " transform="matrix(1.00005,0,0,-1.00003,16.269863,93.531326)"/>
<path style="fill:none;stroke-width:0.3985;stroke-linecap:butt;stroke-linejoin:miter;stroke:rgb(0%,0%,0%);stroke-opacity:1;stroke-miterlimit:10;" d="M -0.000332183 30.585096 L 56.692146 30.585096 " transform="matrix(1.00005,0,0,-1.00003,16.269863,93.531326)"/>
<path style="fill:none;stroke-width:0.3985;stroke-linecap:butt;stroke-linejoin:miter;stroke:rgb(0%,0%,0%);stroke-opacity:1;stroke-miterlimit:10;" d="M -0.000332183 61.142773 L 56.692146 61.142773 " transform="matrix(1.00005,0,0,-1.00003,16.269863,93.531326)"/>
<path style="fill:none;stroke-width:0.3985;stroke-linecap:butt;stroke-linejoin:miter;stroke:rgb(0%,0%,0%);stroke-opacity:1;stroke-miterlimit:10;" d="M -0.000332183 91.731699 L -14.171499 91.731699 L -0.000332183 70.865137 " transform="matrix(1.00005,0,0,-1.00003,16.269863,93.531326)"/>
<path style="fill:none;stroke-width:0.3985;stroke-linecap:butt;stroke-linejoin:miter;stroke:rgb(0%,0%,0%);stroke-opacity:1;stroke-miterlimit:10;" d="M 56.692146 91.731699 L 85.042291 91.731699 L 99.213457 35.038087 L 93.545772 29.366382 L 79.370699 86.059994 L 56.692146 86.059994 " transform="matrix(1.00005,0,0,-1.00003,16.269863,93.531326)"/>
<path style=" stroke:none;fill-rule:nonzero;fill:rgb(79.998779%,90.037537%,91.999817%);fill-opacity:1;" d="M 129.664062 93.53125 L 129.664062 32.386719 L 186.359375 32.386719 L 186.359375 93.53125 Z M 129.664062 93.53125 "/>
<path style="fill:none;stroke-width:0.3985;stroke-linecap:butt;stroke-linejoin:miter;stroke:rgb(0%,0%,0%);stroke-opacity:1;stroke-miterlimit:10;" d="M 113.38853 0.0000759277 L 113.38853 91.731699 L 170.081007 91.731699 L 170.081007 0.0000759277 Z M 113.38853 0.0000759277 " transform="matrix(1.00005,0,0,-1.00003,16.269863,93.531326)"/>
<path style="fill:none;stroke-width:0.3985;stroke-linecap:butt;stroke-linejoin:miter;stroke:rgb(0%,0%,0%);stroke-opacity:1;stroke-miterlimit:10;" d="M 113.38853 30.585096 L 170.081007 30.585096 " transform="matrix(1.00005,0,0,-1.00003,16.269863,93.531326)"/>
<path style="fill:none;stroke-width:0.3985;stroke-linecap:butt;stroke-linejoin:miter;stroke:rgb(0%,0%,0%);stroke-opacity:1;stroke-miterlimit:10;" d="M 113.38853 61.142773 L 170.081007 61.142773 " transform="matrix(1.00005,0,0,-1.00003,16.269863,93.531326)"/>
<path style="fill:none;stroke-width:0.3985;stroke-linecap:butt;stroke-linejoin:miter;stroke:rgb(0%,0%,0%);stroke-opacity:1;stroke-miterlimit:10;" d="M 113.38853 91.731699 L 99.213457 91.731699 L 113.38853 70.865137 " transform="matrix(1.00005,0,0,-1.00003,16.269863,93.531326)"/>
<path style="fill:none;stroke-width:0.3985;stroke-linecap:butt;stroke-linejoin:miter;stroke:rgb(0%,0%,0%);stroke-opacity:1;stroke-miterlimit:10;" d="M 170.081007 91.731699 L 198.427246 91.731699 L 212.602319 35.038087 L 206.930728 29.366382 L 192.759561 86.059994 L 170.081007 86.059994 " transform="matrix(1.00005,0,0,-1.00003,16.269863,93.531326)"/>
<path style=" stroke:none;fill-rule:nonzero;fill:rgb(79.998779%,90.037537%,91.999817%);fill-opacity:1;" d="M 243.054688 93.53125 L 243.054688 32.386719 L 299.753906 32.386719 L 299.753906 93.53125 Z M 243.054688 93.53125 "/>
<path style="fill:none;stroke-width:0.3985;stroke-linecap:butt;stroke-linejoin:miter;stroke:rgb(0%,0%,0%);stroke-opacity:1;stroke-miterlimit:10;" d="M 226.773485 0.0000759277 L 226.773485 91.731699 L 283.469869 91.731699 L 283.469869 0.0000759277 Z M 226.773485 0.0000759277 " transform="matrix(1.00005,0,0,-1.00003,16.269863,93.531326)"/>
<path style="fill:none;stroke-width:0.3985;stroke-linecap:butt;stroke-linejoin:miter;stroke:rgb(0%,0%,0%);stroke-opacity:1;stroke-miterlimit:10;" d="M 226.773485 30.585096 L 283.469869 30.585096 " transform="matrix(1.00005,0,0,-1.00003,16.269863,93.531326)"/>
<path style="fill:none;stroke-width:0.3985;stroke-linecap:butt;stroke-linejoin:miter;stroke:rgb(0%,0%,0%);stroke-opacity:1;stroke-miterlimit:10;" d="M 226.773485 61.142773 L 283.469869 61.142773 " transform="matrix(1.00005,0,0,-1.00003,16.269863,93.531326)"/>
<path style="fill:none;stroke-width:0.3985;stroke-linecap:butt;stroke-linejoin:miter;stroke:rgb(0%,0%,0%);stroke-opacity:1;stroke-miterlimit:10;" d="M 226.773485 91.731699 L 212.602319 91.731699 L 226.773485 70.865137 " transform="matrix(1.00005,0,0,-1.00003,16.269863,93.531326)"/>
<path style="fill:none;stroke-width:0.3985;stroke-linecap:butt;stroke-linejoin:miter;stroke:rgb(0%,0%,0%);stroke-opacity:1;stroke-miterlimit:10;" d="M 283.469869 91.731699 L 311.816108 91.731699 L 325.987275 35.038087 L 320.319589 29.366382 L 306.144517 86.059994 L 283.469869 86.059994 " transform="matrix(1.00005,0,0,-1.00003,16.269863,93.531326)"/>
<path style=" stroke:none;fill-rule:nonzero;fill:rgb(79.998779%,90.037537%,91.999817%);fill-opacity:1;" d="M 356.449219 93.53125 L 356.449219 32.386719 L 413.144531 32.386719 L 413.144531 93.53125 Z M 356.449219 93.53125 "/>
<path style="fill:none;stroke-width:0.3985;stroke-linecap:butt;stroke-linejoin:miter;stroke:rgb(0%,0%,0%);stroke-opacity:1;stroke-miterlimit:10;" d="M 340.162347 0.0000759277 L 340.162347 91.731699 L 396.854825 91.731699 L 396.854825 0.0000759277 Z M 340.162347 0.0000759277 " transform="matrix(1.00005,0,0,-1.00003,16.269863,93.531326)"/>
<path style="fill:none;stroke-width:0.3985;stroke-linecap:butt;stroke-linejoin:miter;stroke:rgb(0%,0%,0%);stroke-opacity:1;stroke-miterlimit:10;" d="M 340.162347 30.585096 L 396.854825 30.585096 " transform="matrix(1.00005,0,0,-1.00003,16.269863,93.531326)"/>
<path style="fill:none;stroke-width:0.3985;stroke-linecap:butt;stroke-linejoin:miter;stroke:rgb(0%,0%,0%);stroke-opacity:1;stroke-miterlimit:10;" d="M 340.162347 61.142773 L 396.854825 61.142773 " transform="matrix(1.00005,0,0,-1.00003,16.269863,93.531326)"/>
<path style="fill:none;stroke-width:0.3985;stroke-linecap:butt;stroke-linejoin:miter;stroke:rgb(0%,0%,0%);stroke-opacity:1;stroke-miterlimit:10;" d="M 340.162347 91.731699 L 325.987275 91.731699 L 340.162347 70.865137 " transform="matrix(1.00005,0,0,-1.00003,16.269863,93.531326)"/>
<path style="fill:none;stroke-width:0.3985;stroke-linecap:butt;stroke-linejoin:miter;stroke:rgb(0%,0%,0%);stroke-opacity:1;stroke-miterlimit:10;" d="M 396.854825 91.731699 L 425.201064 91.731699 L 439.376136 35.038087 L 433.704545 29.366382 L 419.533379 86.059994 L 396.854825 86.059994 " transform="matrix(1.00005,0,0,-1.00003,16.269863,93.531326)"/>
</g>
</svg>
