<?xml version="1.0" encoding="UTF-8"?>
<svg xmlns="http://www.w3.org/2000/svg" xmlns:xlink="http://www.w3.org/1999/xlink" width="117pt" height="95pt" viewBox="0 0 117 95" version="1.1">
<g id="surface1">
<path style=" stroke:none;fill-rule:nonzero;fill:rgb(79.998779%,90.037537%,91.999817%);fill-opacity:1;" d="M 16.269531 93.53125 L 16.269531 32.386719 L 27.609375 32.386719 L 27.609375 93.53125 Z M 16.269531 93.53125 "/>
<path style=" stroke:none;fill-rule:nonzero;fill:rgb(94.999695%,97.509766%,97.999573%);fill-opacity:1;" d="M 27.609375 93.53125 L 27.609375 32.386719 L 72.964844 32.386719 L 72.964844 93.53125 Z M 27.609375 93.53125 "/>
<path style="fill:none;stroke-width:0.3985;stroke-linecap:butt;stroke-linejoin:miter;stroke:rgb(0%,0%,0%);stroke-opacity:1;stroke-miterlimit:10;" d="M -0.000386808 0.0000759277 L -0.000386808 91.731699 L 56.693225 91.731699 L 56.693225 0.0000759277 Z M -0.000386808 0.0000759277 " transform="matrix(1.00003,0,0,-1.00003,16.269918,93.531326)"/>
<path style="fill:none;stroke-width:0.3985;stroke-linecap:butt;stroke-linejoin:miter;stroke:rgb(0%,0%,0%);stroke-opacity:1;stroke-miterlimit:10;" d="M -0.000386808 30.585096 L 56.693225 30.585096 " transform="matrix(1.00003,0,0,-1.00003,16.269918,93.531326)"/>
<path style="fill:none;stroke-width:0.3985;stroke-linecap:butt;stroke-linejoin:miter;stroke:rgb(0%,0%,0%);stroke-opacity:1;stroke-miterlimit:10;" d="M -0.000386808 61.142773 L 56.693225 61.142773 " transform="matrix(1.00003,0,0,-1.00003,16.269918,93.531326)"/>
<path style="fill:none;stroke-width:0.3985;stroke-linecap:butt;stroke-linejoin:miter;stroke:rgb(0%,0%,0%);stroke-opacity:1;stroke-miterlimit:10;" d="M -0.000386808 91.731699 L -14.171837 91.731699 L -0.000386808 70.865137 " transform="matrix(1.00003,0,0,-1.00003,16.269918,93.531326)"/>
<path style="fill:none;stroke-width:0.3985;stroke-linecap:butt;stroke-linejoin:miter;stroke:rgb(0%,0%,0%);stroke-opacity:1;stroke-miterlimit:10;" d="M 56.693225 91.731699 L 85.040031 91.731699 L 99.215387 35.038087 L 93.543682 29.366382 L 79.372232 86.059994 L 56.693225 86.059994 " transform="matrix(1.00003,0,0,-1.00003,16.269918,93.531326)"/>
<path style="fill:none;stroke-width:0.3985;stroke-linecap:butt;stroke-linejoin:miter;stroke:rgb(0%,0%,0%);stroke-opacity:1;stroke-dasharray:2.98883,2.98883;stroke-miterlimit:10;" d="M 11.339117 0.0000759277 L 11.339117 91.731699 " transform="matrix(1.00003,0,0,-1.00003,16.269918,93.531326)"/>
<path style="fill:none;stroke-width:0.3985;stroke-linecap:butt;stroke-linejoin:miter;stroke:rgb(0%,0%,0%);stroke-opacity:1;stroke-dasharray:2.98883,2.98883;stroke-miterlimit:10;" d="M 22.67862 0.0000759277 L 22.67862 91.731699 " transform="matrix(1.00003,0,0,-1.00003,16.269918,93.531326)"/>
<path style="fill:none;stroke-width:0.3985;stroke-linecap:butt;stroke-linejoin:miter;stroke:rgb(0%,0%,0%);stroke-opacity:1;stroke-dasharray:2.98883,2.98883;stroke-miterlimit:10;" d="M 34.014218 0.0000759277 L 34.014218 91.731699 " transform="matrix(1.00003,0,0,-1.00003,16.269918,93.531326)"/>
<path style="fill:none;stroke-width:0.3985;stroke-linecap:butt;stroke-linejoin:miter;stroke:rgb(0%,0%,0%);stroke-opacity:1;stroke-dasharray:2.98883,2.98883;stroke-miterlimit:10;" d="M 45.353721 0.0000759277 L 45.353721 91.731699 " transform="matrix(1.00003,0,0,-1.00003,16.269918,93.531326)"/>
</g>
</svg>
