<?xml version='1.0' encoding='UTF-8'?>
<!-- This file was generated by dvisvgm 2.3.5 -->
<svg height='222.97067pt' version='1.1' viewBox='-72.000004 -72.000006 268.683447 222.97067' width='268.683447pt' xmlns='http://www.w3.org/2000/svg' xmlns:xlink='http://www.w3.org/1999/xlink'>
<defs>
<path d='M6.01345 -7.998007C6.025405 -8.045828 6.049315 -8.117559 6.049315 -8.177335C6.049315 -8.296887 5.929763 -8.296887 5.905853 -8.296887C5.893898 -8.296887 5.308095 -8.249066 5.248319 -8.237111C5.045081 -8.225156 4.865753 -8.201245 4.65056 -8.18929C4.351681 -8.16538 4.267995 -8.153425 4.267995 -7.938232C4.267995 -7.81868 4.363636 -7.81868 4.531009 -7.81868C5.116812 -7.81868 5.128767 -7.711083 5.128767 -7.591532C5.128767 -7.519801 5.104857 -7.424159 5.092902 -7.388294L4.363636 -4.483188C4.23213 -4.794022 3.90934 -5.272229 3.287671 -5.272229C1.936737 -5.272229 0.478207 -3.526775 0.478207 -1.75741C0.478207 -0.573848 1.171606 0.119552 1.984558 0.119552C2.642092 0.119552 3.203985 -0.394521 3.53873 -0.789041C3.658281 -0.083686 4.220174 0.119552 4.578829 0.119552S5.224408 -0.095641 5.439601 -0.526027C5.630884 -0.932503 5.798257 -1.661768 5.798257 -1.709589C5.798257 -1.769365 5.750436 -1.817186 5.678705 -1.817186C5.571108 -1.817186 5.559153 -1.75741 5.511333 -1.578082C5.332005 -0.872727 5.104857 -0.119552 4.614695 -0.119552C4.267995 -0.119552 4.244085 -0.430386 4.244085 -0.669489C4.244085 -0.71731 4.244085 -0.968369 4.327771 -1.303113L6.01345 -7.998007ZM3.598506 -1.422665C3.53873 -1.219427 3.53873 -1.195517 3.371357 -0.968369C3.108344 -0.633624 2.582316 -0.119552 2.020423 -0.119552C1.530262 -0.119552 1.255293 -0.561893 1.255293 -1.267248C1.255293 -1.924782 1.625903 -3.263761 1.853051 -3.765878C2.259527 -4.60274 2.82142 -5.033126 3.287671 -5.033126C4.076712 -5.033126 4.23213 -4.052802 4.23213 -3.957161C4.23213 -3.945205 4.196264 -3.789788 4.184309 -3.765878L3.598506 -1.422665Z' id='g0-100'/>
<path d='M2.402989 -4.805978H3.502864C3.730012 -4.805978 3.849564 -4.805978 3.849564 -5.021171C3.849564 -5.152677 3.777833 -5.152677 3.53873 -5.152677H2.486675L2.929016 -6.898132C2.976837 -7.065504 2.976837 -7.089415 2.976837 -7.173101C2.976837 -7.364384 2.82142 -7.47198 2.666002 -7.47198C2.570361 -7.47198 2.295392 -7.436115 2.199751 -7.053549L1.733499 -5.152677H0.609714C0.37061 -5.152677 0.263014 -5.152677 0.263014 -4.925529C0.263014 -4.805978 0.3467 -4.805978 0.573848 -4.805978H1.637858L0.848817 -1.649813C0.753176 -1.231382 0.71731 -1.111831 0.71731 -0.956413C0.71731 -0.394521 1.111831 0.119552 1.78132 0.119552C2.988792 0.119552 3.634371 -1.625903 3.634371 -1.709589C3.634371 -1.78132 3.58655 -1.817186 3.514819 -1.817186C3.490909 -1.817186 3.443088 -1.817186 3.419178 -1.769365C3.407223 -1.75741 3.395268 -1.745455 3.311582 -1.554172C3.060523 -0.956413 2.510585 -0.119552 1.817186 -0.119552C1.458531 -0.119552 1.43462 -0.418431 1.43462 -0.681445C1.43462 -0.6934 1.43462 -0.920548 1.470486 -1.06401L2.402989 -4.805978Z' id='g0-116'/>
<path d='M4.582814 -3.188045C4.582814 -3.985056 4.533001 -4.782067 4.184309 -5.519303C3.726027 -6.475716 2.909091 -6.635118 2.49066 -6.635118C1.892902 -6.635118 1.165629 -6.37609 0.757161 -5.449564C0.438356 -4.762142 0.388543 -3.985056 0.388543 -3.188045C0.388543 -2.440847 0.428394 -1.544209 0.836862 -0.787049C1.265255 0.019925 1.992528 0.219178 2.480697 0.219178C3.01868 0.219178 3.775841 0.009963 4.214197 -0.936488C4.533001 -1.62391 4.582814 -2.400996 4.582814 -3.188045ZM2.480697 0C2.092154 0 1.504359 -0.249066 1.325031 -1.205479C1.215442 -1.803238 1.215442 -2.719801 1.215442 -3.307597C1.215442 -3.945205 1.215442 -4.60274 1.295143 -5.140722C1.484433 -6.326276 2.231631 -6.41594 2.480697 -6.41594C2.809465 -6.41594 3.466999 -6.236613 3.656289 -5.250311C3.755915 -4.692403 3.755915 -3.935243 3.755915 -3.307597C3.755915 -2.560399 3.755915 -1.882939 3.646326 -1.24533C3.496887 -0.298879 2.929016 0 2.480697 0Z' id='g1-48'/>
<path d='M2.929016 -6.37609C2.929016 -6.615193 2.929016 -6.635118 2.699875 -6.635118C2.082192 -5.997509 1.205479 -5.997509 0.886675 -5.997509V-5.688667C1.085928 -5.688667 1.673724 -5.688667 2.191781 -5.947696V-0.787049C2.191781 -0.428394 2.161893 -0.308842 1.265255 -0.308842H0.946451V0C1.295143 -0.029888 2.161893 -0.029888 2.560399 -0.029888S3.825654 -0.029888 4.174346 0V-0.308842H3.855542C2.958904 -0.308842 2.929016 -0.418431 2.929016 -0.787049V-6.37609Z' id='g1-49'/>
<path d='M1.265255 -0.767123L2.321295 -1.793275C3.875467 -3.16812 4.473225 -3.706102 4.473225 -4.702366C4.473225 -5.838107 3.576588 -6.635118 2.361146 -6.635118C1.235367 -6.635118 0.498132 -5.718555 0.498132 -4.83188C0.498132 -4.273973 0.996264 -4.273973 1.026152 -4.273973C1.195517 -4.273973 1.544209 -4.393524 1.544209 -4.801993C1.544209 -5.061021 1.364882 -5.32005 1.016189 -5.32005C0.936488 -5.32005 0.916563 -5.32005 0.886675 -5.310087C1.115816 -5.957659 1.653798 -6.326276 2.231631 -6.326276C3.138232 -6.326276 3.566625 -5.519303 3.566625 -4.702366C3.566625 -3.905355 3.068493 -3.118306 2.520548 -2.500623L0.607721 -0.368618C0.498132 -0.259029 0.498132 -0.239103 0.498132 0H4.194271L4.473225 -1.733499H4.224159C4.174346 -1.43462 4.104608 -0.996264 4.004981 -0.846824C3.935243 -0.767123 3.277709 -0.767123 3.058531 -0.767123H1.265255Z' id='g1-50'/>
<path d='M2.929016 -1.643836V-0.777086C2.929016 -0.418431 2.909091 -0.308842 2.171856 -0.308842H1.96264V0C2.371108 -0.029888 2.889166 -0.029888 3.307597 -0.029888S4.254047 -0.029888 4.662516 0V-0.308842H4.4533C3.716065 -0.308842 3.696139 -0.418431 3.696139 -0.777086V-1.643836H4.692403V-1.952677H3.696139V-6.485679C3.696139 -6.684932 3.696139 -6.744707 3.536737 -6.744707C3.447073 -6.744707 3.417186 -6.744707 3.337484 -6.625156L0.278954 -1.952677V-1.643836H2.929016ZM2.988792 -1.952677H0.557908L2.988792 -5.668742V-1.952677Z' id='g1-52'/>
<path d='M4.473225 -2.002491C4.473225 -3.188045 3.656289 -4.184309 2.580324 -4.184309C2.102117 -4.184309 1.673724 -4.024907 1.315068 -3.676214V-5.618929C1.514321 -5.559153 1.843088 -5.489415 2.161893 -5.489415C3.387298 -5.489415 4.084682 -6.396015 4.084682 -6.525529C4.084682 -6.585305 4.054795 -6.635118 3.985056 -6.635118C3.975093 -6.635118 3.955168 -6.635118 3.905355 -6.60523C3.706102 -6.515567 3.217933 -6.316314 2.550436 -6.316314C2.15193 -6.316314 1.693649 -6.386052 1.225405 -6.595268C1.145704 -6.625156 1.125778 -6.625156 1.105853 -6.625156C1.006227 -6.625156 1.006227 -6.545455 1.006227 -6.386052V-3.437111C1.006227 -3.257783 1.006227 -3.178082 1.145704 -3.178082C1.215442 -3.178082 1.235367 -3.20797 1.275218 -3.267746C1.384807 -3.427148 1.753425 -3.965131 2.560399 -3.965131C3.078456 -3.965131 3.327522 -3.506849 3.407223 -3.327522C3.566625 -2.958904 3.58655 -2.570361 3.58655 -2.072229C3.58655 -1.723537 3.58655 -1.125778 3.347447 -0.707347C3.108344 -0.318804 2.739726 -0.059776 2.281445 -0.059776C1.554172 -0.059776 0.986301 -0.587796 0.816936 -1.175592C0.846824 -1.165629 0.876712 -1.155666 0.986301 -1.155666C1.315068 -1.155666 1.484433 -1.404732 1.484433 -1.643836S1.315068 -2.132005 0.986301 -2.132005C0.846824 -2.132005 0.498132 -2.062267 0.498132 -1.603985C0.498132 -0.747198 1.185554 0.219178 2.30137 0.219178C3.457036 0.219178 4.473225 -0.737235 4.473225 -2.002491Z' id='g1-53'/>
<path d='M1.62391 -4.552927C1.165629 -4.851806 1.125778 -5.190535 1.125778 -5.3599C1.125778 -5.967621 1.77335 -6.386052 2.480697 -6.386052C3.20797 -6.386052 3.845579 -5.867995 3.845579 -5.150685C3.845579 -4.582814 3.457036 -4.104608 2.859278 -3.755915L1.62391 -4.552927ZM3.078456 -3.606476C3.795766 -3.975093 4.283935 -4.493151 4.283935 -5.150685C4.283935 -6.067248 3.39726 -6.635118 2.49066 -6.635118C1.494396 -6.635118 0.687422 -5.897883 0.687422 -4.971357C0.687422 -4.79203 0.707347 -4.343711 1.125778 -3.875467C1.235367 -3.755915 1.603985 -3.506849 1.853051 -3.337484C1.275218 -3.048568 0.418431 -2.49066 0.418431 -1.504359C0.418431 -0.448319 1.43462 0.219178 2.480697 0.219178C3.606476 0.219178 4.552927 -0.607721 4.552927 -1.673724C4.552927 -2.032379 4.443337 -2.480697 4.064757 -2.899128C3.875467 -3.108344 3.716065 -3.20797 3.078456 -3.606476ZM2.082192 -3.188045L3.307597 -2.410959C3.58655 -2.221669 4.054795 -1.92279 4.054795 -1.315068C4.054795 -0.577833 3.307597 -0.059776 2.49066 -0.059776C1.633873 -0.059776 0.916563 -0.67746 0.916563 -1.504359C0.916563 -2.082192 1.235367 -2.719801 2.082192 -3.188045Z' id='g1-56'/>
</defs>
<g id='page1'><g stroke-miterlimit="10" transform="translate(-51.302823,134.422065)scale(0.996264,-0.996264)"><g stroke="#000" fill="#000">
<g stroke-width="0.4">
<g stroke="none" transform="scale(-1.00375,1.00375)translate(-51.302823,134.422065)scale(-1,-1)"></g><g transform="translate(-20.7748,-16.61066)">
<g stroke="none" transform="scale(-1.00375,1.00375)translate(-51.302823,134.422065)scale(-1,-1)"><g stroke="#000" stroke-miterlimit="10" transform="translate(-30.605642,117.873465)scale(0.996264,-0.996264)"><g stroke="#000" fill="#000">
<g stroke-width="0.4">
<g fill="#ffffb3">
<path d="M 0.0 0.0 L 240.0 0.0 L 240.0 206.99615 L 0.0 206.99615 Z" stroke="none"/>
</g>
<g stroke-width="0.4">
<g stroke="#c0c0c0" fill="#c0c0c0">
<g stroke-dasharray="none" stroke-dashoffset="0.0">
<g stroke="#ccc" fill="#ccc">
<path d="M 0.0 0.0 L 0.0 206.99615 M 20.0 0.0 L 20.0 206.99615 M 40.0 0.0 L 40.0 206.99615 M 60.0 0.0 L 60.0 206.99615 M 80.0 0.0 L 80.0 206.99615 M 100.0 0.0 L 100.0 206.99615 M 120.0 0.0 L 120.0 206.99615 M 140.0 0.0 L 140.0 206.99615 M 160.0 0.0 L 160.0 206.99615 M 180.0 0.0 L 180.0 206.99615 M 200.0 0.0 L 200.0 206.99615 M 220.0 0.0 L 220.0 206.99615 M 240.0 0.0 L 240.0 206.99615" fill="none"/>
</g>
</g>
</g>
</g>
<g stroke-width="0.4">
<g stroke="#c0c0c0" fill="#c0c0c0">
<g stroke-dasharray="none" stroke-dashoffset="0.0">
<g stroke="#ccc" fill="#ccc">
<path d="M 80.0 0.0 L 80.0 206.99615 M 160.0 0.0 L 160.0 206.99615 M 240.0 0.0 L 240.0 206.99615" fill="none"/>
</g>
</g>
</g>
</g>
<g stroke-width="0.4">
<g stroke="#c0c0c0" fill="#c0c0c0">
<g stroke-dasharray="none" stroke-dashoffset="0.0">
<g stroke="#ccc" fill="#ccc">
<path d="M 0.0 0.0 L 240.0 0.0 M 0.0 6.89987 L 240.0 6.89987 M 0.0 13.79974 L 240.0 13.79974 M 0.0 20.69962 L 240.0 20.69962 M 0.0 27.59949 L 240.0 27.59949 M 0.0 34.49936 L 240.0 34.49936 M 0.0 41.39923 L 240.0 41.39923 M 0.0 48.2991 L 240.0 48.2991 M 0.0 55.19897 L 240.0 55.19897 M 0.0 62.09885 L 240.0 62.09885 M 0.0 68.99872 L 240.0 68.99872 M 0.0 75.89859 L 240.0 75.89859 M 0.0 82.79846 L 240.0 82.79846 M 0.0 89.69833 L 240.0 89.69833 M 0.0 96.5982 L 240.0 96.5982 M 0.0 103.49808 L 240.0 103.49808 M 0.0 110.39795 L 240.0 110.39795 M 0.0 117.29782 L 240.0 117.29782 M 0.0 124.1977 L 240.0 124.1977 M 0.0 131.09756 L 240.0 131.09756 M 0.0 137.99744 L 240.0 137.99744" fill="none"/>
</g>
</g>
</g>
</g>
<g stroke-width="0.4">
<g stroke="#c0c0c0" fill="#c0c0c0">
<g stroke-dasharray="none" stroke-dashoffset="0.0">
<g stroke="#ccc" fill="#ccc">
<path d="M 0.0 34.49936 L 240.0 34.49936 M 0.0 68.99872 L 240.0 68.99872 M 0.0 103.49808 L 240.0 103.49808 M 0.0 137.99744 L 240.0 137.99744" fill="none"/>
</g>
</g>
</g>
</g>
<g stroke-width="0.2">
<g stroke="#808080" fill="#808080">
<path d="M 0.0 -1.42268 L 0.0 1.42271 M 20.0 -1.42268 L 20.0 1.42271 M 40.0 -1.42268 L 40.0 1.42271 M 60.0 -1.42268 L 60.0 1.42271 M 80.0 -1.42268 L 80.0 1.42271 M 100.0 -1.42268 L 100.0 1.42271 M 120.0 -1.42268 L 120.0 1.42271 M 140.0 -1.42268 L 140.0 1.42271 M 160.0 -1.42268 L 160.0 1.42271 M 180.0 -1.42268 L 180.0 1.42271 M 200.0 -1.42268 L 200.0 1.42271 M 220.0 -1.42268 L 220.0 1.42271 M 240.0 -1.42268 L 240.0 1.42271" fill="none"/>
</g>
</g>
<g stroke-width="0.2">
<g stroke="#808080" fill="#808080">
<path d="M 80.0 -2.13383 L 80.0 2.13383 M 160.0 -2.13383 L 160.0 2.13383 M 240.0 -2.13383 L 240.0 2.13383" fill="none"/>
</g>
</g>
<g stroke-width="0.2">
<g stroke="#808080" fill="#808080">
<path d="M -1.4227 0.0 L 1.42273 0.0 M -1.4227 6.89987 L 1.42273 6.89987 M -1.4227 13.79974 L 1.42273 13.79974 M -1.4227 20.69962 L 1.42273 20.69962 M -1.4227 27.59949 L 1.42273 27.59949 M -1.4227 34.49936 L 1.42273 34.49936 M -1.4227 41.39923 L 1.42273 41.39923 M -1.4227 48.2991 L 1.42273 48.2991 M -1.4227 55.19897 L 1.42273 55.19897 M -1.4227 62.09885 L 1.42273 62.09885 M -1.4227 68.99872 L 1.42273 68.99872 M -1.4227 75.89859 L 1.42273 75.89859 M -1.4227 82.79846 L 1.42273 82.79846 M -1.4227 89.69833 L 1.42273 89.69833 M -1.4227 96.5982 L 1.42273 96.5982 M -1.4227 103.49808 L 1.42273 103.49808 M -1.4227 110.39795 L 1.42273 110.39795 M -1.4227 117.29782 L 1.42273 117.29782 M -1.4227 124.1977 L 1.42273 124.1977 M -1.4227 131.09756 L 1.42273 131.09756 M -1.4227 137.99744 L 1.42273 137.99744" fill="none"/>
</g>
</g>
<g stroke-width="0.2">
<g stroke="#808080" fill="#808080">
<path d="M -2.13385 34.49936 L 2.13385 34.49936 M -2.13385 68.99872 L 2.13385 68.99872 M -2.13385 103.49808 L 2.13385 103.49808 M -2.13385 137.99744 L 2.13385 137.99744" fill="none"/>
</g>
</g>
<path d="M 1.99997 0.0 L 238.00003 0.0" fill="none"/>
<g transform="matrix(-1.0,0.0,0.0,-1.0,1.99997,0.0)">
<path d=" M 1.99997 0.0 L -1.19998 1.59998 L 0.0 0.0 L -1.19998 -1.59998  " stroke="none"/>
</g>
<g transform="translate(238.00003,0.0)">
<path d=" M 1.99997 0.0 L -1.19998 1.59998 L 0.0 0.0 L -1.19998 -1.59998  " stroke="none"/>
</g>
<path d="M 0.0 1.99997 L 0.0 204.99619" fill="none"/>
<g transform="matrix(0.0,-1.0,1.0,0.0,0.0,1.99997)">
<path d=" M 1.99997 0.0 L -1.19998 1.59998 L 0.0 0.0 L -1.19998 -1.59998  " stroke="none"/>
</g>
<g transform="matrix(0.0,1.0,-1.0,0.0,0.0,204.99619)">
<path d=" M 1.99997 0.0 L -1.19998 1.59998 L 0.0 0.0 L -1.19998 -1.59998  " stroke="none"/>
</g>
<g transform="translate(77.5,-12.69446)">
<g stroke="none" transform="scale(-1.00375,1.00375)translate(-30.605642,117.873465)scale(-1,-1)"><g fill="#000">
<g stroke="none"><use x='-30.605642' xlink:href='#g1-52' y='117.873465'/></g></g>
</g></g>
<g transform="translate(157.5,-12.69446)">
<g stroke="none" transform="scale(-1.00375,1.00375)translate(-30.605642,117.873465)scale(-1,-1)"><g fill="#000">
<g stroke="none"><use x='-30.605642' xlink:href='#g1-56' y='117.873465'/></g></g>
</g></g>
<g transform="translate(234.99998,-12.69446)">
<g stroke="none" transform="scale(-1.00375,1.00375)translate(-30.605642,117.873465)scale(-1,-1)"><g fill="#000">
<g stroke="none"><use x='-30.605642' xlink:href='#g1-49' y='117.873465'/>
<use x='-25.624303' xlink:href='#g1-50' y='117.873465'/></g></g>
</g></g>
<g transform="translate(-14.05434,31.27715)">
<g stroke="none" transform="scale(-1.00375,1.00375)translate(-30.605642,117.873465)scale(-1,-1)"><g fill="#000">
<g stroke="none"><use x='-30.605642' xlink:href='#g1-53' y='117.873465'/>
<use x='-25.624303' xlink:href='#g1-48' y='117.873465'/></g></g>
</g></g>
<g transform="translate(-19.05434,65.7765)">
<g stroke="none" transform="scale(-1.00375,1.00375)translate(-30.605642,117.873465)scale(-1,-1)"><g fill="#000">
<g stroke="none"><use x='-30.605642' xlink:href='#g1-49' y='117.873465'/>
<use x='-25.624303' xlink:href='#g1-48' y='117.873465'/>
<use x='-20.642964' xlink:href='#g1-48' y='117.873465'/></g></g>
</g></g>
<g transform="translate(-19.05434,100.27586)">
<g stroke="none" transform="scale(-1.00375,1.00375)translate(-30.605642,117.873465)scale(-1,-1)"><g fill="#000">
<g stroke="none"><use x='-30.605642' xlink:href='#g1-49' y='117.873465'/>
<use x='-25.624303' xlink:href='#g1-53' y='117.873465'/>
<use x='-20.642964' xlink:href='#g1-48' y='117.873465'/></g></g>
</g></g>
<g transform="translate(-19.05434,134.77522)">
<g stroke="none" transform="scale(-1.00375,1.00375)translate(-30.605642,117.873465)scale(-1,-1)"><g fill="#000">
<g stroke="none"><use x='-30.605642' xlink:href='#g1-50' y='117.873465'/>
<use x='-25.624303' xlink:href='#g1-48' y='117.873465'/>
<use x='-20.642964' xlink:href='#g1-48' y='117.873465'/></g></g>
</g></g>
<clipPath id="pgfcp1"><path d="M 0.0 0.0 L 240.0 0.0 L 240.0 206.99615 L 0.0 206.99615 Z"/> </clipPath>
<g clip-path="url(#pgfcp1)">
<g stroke="#9e0c0f" fill="#9e0c0f">
<g stroke-width="1.0">
<g stroke-dasharray="none" stroke-dashoffset="0.0">
<path d="M 0.0 0.0 L 10.0 1.03497 L 20.0 2.06996 L 30.0 3.10493 L 40.0 4.13992 L 50.0 5.1749 L 60.0 6.20988 L 70.0 7.24486 L 80.0 8.27985 L 90.0 9.31482 L 100.0 10.34981 L 110.0 11.38478 L 120.0 12.41977 L 130.0 13.45474 L 140.0 14.48973 L 150.0 15.5247 L 160.0 16.5597 L 170.0 17.59467 L 180.0 18.62965 L 190.0 19.66463 L 200.0 20.69962 L 210.0 21.73459 L 220.0 22.76958 L 230.0 23.80455 L 231.7514 23.98604" fill="none"/>
<g transform="matrix(0.99466,0.10292,-0.10292,0.99466,231.04807,23.91325)">
<g stroke-dasharray="none" stroke-dashoffset="0.0">
 <g stroke-linejoin="miter">
 <path d=" M 7.41887 0.0 L 2.38503 1.67795 L 0.7071 0.0 L 2.38503 -1.67795 Z  " />
 </g>
 </g>
</g>
</g>
</g>
</g>
<g stroke="#008099" fill="#008099">
<g stroke-width="1.0">
<g stroke-dasharray="none" stroke-dashoffset="0.0">
<path d="M 0.0 103.49808 L 10.0 99.35815 L 20.0 95.21823 L 30.0 91.07831 L 40.0 86.93839 L 50.0 82.79846 L 60.0 78.65854 L 70.0 74.51862 L 80.0 70.3787 L 90.0 66.23877 L 100.0 62.09885 L 110.0 57.95892 L 120.0 53.819 L 130.0 49.67908 L 140.0 45.53915 L 150.0 41.39923 L 160.0 37.25931 L 170.0 33.11938 L 180.0 28.97946 L 190.0 24.83954 L 200.0 20.69962 L 210.0 16.5597 L 220.0 12.41977 L 230.0 8.27985 L 232.33817 7.31163" fill="none"/>
<g transform="matrix(0.9239,-0.38246,0.38246,0.9239,231.68486,7.58208)">
<g stroke-dasharray="none" stroke-dashoffset="0.0">
 <g stroke-linejoin="miter">
 <path d=" M 7.41887 0.0 L 2.38503 1.67795 L 0.7071 0.0 L 2.38503 -1.67795 Z  " />
 </g>
 </g>
</g>
</g>
</g>
</g>
</g>
<g transform="translate(231.69775,4.1162)">
<g stroke="none" transform="scale(-1.00375,1.00375)translate(-30.605642,117.873465)scale(-1,-1)"><g fill="#000">
<g stroke="none"><use x='-30.605642' xlink:href='#g0-116' y='117.873465'/></g></g>
</g></g>
<g transform="translate(4.1162,194.54665)">
<g stroke="none" transform="scale(-1.00375,1.00375)translate(-30.605642,117.873465)scale(-1,-1)"><g fill="#000">
<g stroke="none"><use x='-30.605642' xlink:href='#g0-100' y='117.873465'/></g></g>
</g></g>
</g>
</g>
</g></g></g>
</g>
</g>
</g></g>
</svg>